<?xml version="1.0" encoding="UTF-8" standalone="no"?>
<svg width="48px" height="48px" viewBox="0 0 48 48" version="1.1" xmlns="http://www.w3.org/2000/svg" xmlns:xlink="http://www.w3.org/1999/xlink">
    <!-- Generator: Sketch 48.2 (47327) - http://www.bohemiancoding.com/sketch -->
    <title>更多</title>
    <desc>Created with Sketch.</desc>
    <defs></defs>
    <g id="Page-1" stroke="none" stroke-width="1" fill="none" fill-rule="evenodd">
        <g id="更多" transform="translate(8.000000, 8.000000)" fill="#555555" fill-rule="nonzero">
            <path d="M16,0 C7.16325507,0 0,7.163693 0,15.9999776 C0,24.8367101 7.16325507,32 16,32 C24.8367449,32 32,24.836755 32,15.9999776 C32,7.16364822 24.8367449,0 16,0 Z M22.0000504,16.7999653 L16.8000336,16.7999653 L16.8000336,21.9996165 C16.8000336,22.4417644 16.441835,22.7999625 16.0000448,22.7999625 C15.5582546,22.7999625 15.200056,22.4417645 15.200056,21.9996165 L15.200056,16.7999653 L9.99999441,16.7999653 C9.55824901,16.7999653 9.20005039,16.4417672 9.20005039,15.9999776 C9.20005039,15.558188 9.55824897,15.19999 9.99999441,15.19999 L15.2000112,15.19999 L15.2000112,9.9999804 C15.2000112,9.55778766 15.5582098,9.19999272 16,9.19999272 C16.4417902,9.19999272 16.7999888,9.55778766 16.7999888,9.9999804 L16.7999888,15.1999899 L22.0000056,15.1999899 C22.441751,15.1999899 22.7999496,15.558188 22.7999496,15.9999776 C22.7999944,16.4417672 22.4417958,16.7999653 22.0000504,16.7999653 Z" id="Shape"></path>
        </g>
    </g>
</svg>