<svg id="图层_1" data-name="图层 1" xmlns="http://www.w3.org/2000/svg" viewBox="0 0 44.44 35.56"><defs><style>.cls-1{fill:#595757;}</style></defs><title>网页ICON</title><path class="cls-1" d="M43.38,26.12h-4V22h4a1.07,1.07,0,0,0,1.07-1.09,1.09,1.09,0,0,0-1.07-1.09h-4V15.75h4v0a1.07,1.07,0,0,0,1.07-1.09,1.09,1.09,0,0,0-1.07-1.09h-4V9.46h4a1.07,1.07,0,0,0,1.07-1.09,1.09,1.09,0,0,0-1.07-1.09h-4v-3h0A4.19,4.19,0,0,0,35.29,0H9A4.19,4.19,0,0,0,4.84,4.24v3H1a1.05,1.05,0,0,0-.73.36A1,1,0,0,0,0,8.42,1.07,1.07,0,0,0,1.07,9.51H4.84v4.06H1.07a1.1,1.1,0,0,0,0,2.2H4.84v4.06H1a1.06,1.06,0,0,0-1,1.09A1.07,1.07,0,0,0,1.07,22H4.84V26.1H1a1,1,0,0,0-1,1.11,1.07,1.07,0,0,0,1.07,1.09H4.84v3A4.19,4.19,0,0,0,9,35.56H35.29a4.19,4.19,0,0,0,4.11-4.24v-3h4a1.07,1.07,0,0,0,1.07-1.09A1.09,1.09,0,0,0,43.38,26.12ZM37.49,22v9.37a2.11,2.11,0,0,1-2.07,2.2H9a2.13,2.13,0,0,1-2.07-2.22V18.06l0-3.4V4.18A2.13,2.13,0,0,1,9,2H35.4a2.13,2.13,0,0,1,2.07,2.22V16.77l0,4.13V22ZM12,15.12l0,.18a.69.69,0,0,0,.36.47.86.86,0,0,0,.58.07l.22-.07h0l5.09-1.6a.77.77,0,0,0,.53-.93v0L18.75,13a.69.69,0,0,0-.31-.4.87.87,0,0,0-.67-.07l-3.24,1,.2-.36a8.51,8.51,0,0,1,5.62-4.09,10.76,10.76,0,0,1,7.31,1.15,8.53,8.53,0,0,1,3.78,5.42,1,1,0,0,0,.42.6,1.06,1.06,0,0,0,.51.16.61.61,0,0,0,.2,0,.94.94,0,0,0,.71-.69,1.38,1.38,0,0,0,0-.44,10.4,10.4,0,0,0-4.6-6.6A12.52,12.52,0,0,0,20,7.28a10.5,10.5,0,0,0-6.86,5v0l-.67-3.06a.76.76,0,0,0-.89-.6l-.18,0h0a.78.78,0,0,0-.53.93L12,15c-.07,0-.07.07,0,.09ZM33.69,26.18,32.52,21v0l-.07-.27a1,1,0,0,0-.33-.47.86.86,0,0,0-.58-.07l-.24.07a.08.08,0,0,0,0,0L26,21.76a.77.77,0,0,0-.53.93l.07.2a.65.65,0,0,0,.29.4.92.92,0,0,0,.69.07l3.4-1a8.69,8.69,0,0,1-5.55,4,10.76,10.76,0,0,1-7.31-1.15,8.65,8.65,0,0,1-3.75-5.49.94.94,0,0,0-1.13-.71.9.9,0,0,0-.6.42,1,1,0,0,0-.13.71A10.57,10.57,0,0,0,16,26.87a12.13,12.13,0,0,0,6.31,1.67,12.48,12.48,0,0,0,2.44-.24,10.47,10.47,0,0,0,6.64-4.66l.67,3a.75.75,0,0,0,.36.47.78.78,0,0,0,.56.07l.18,0h0a.82.82,0,0,0,.47-.91Z"/></svg>