<svg id="图层_1" data-name="图层 1" xmlns="http://www.w3.org/2000/svg" viewBox="0 0 43.6 38.48"><defs><style>.cls-1{fill:#595757;}</style></defs><title>网页ICON</title><path class="cls-1" d="M12.65,19.48a1.39,1.39,0,0,1-.84.23,3.1,3.1,0,0,1-2-.85l-.69.83a4,4,0,0,0,2.7,1.05,2.55,2.55,0,0,0,1.68-.53,1.7,1.7,0,0,0,.64-1.38,1.6,1.6,0,0,0-.51-1.29,3.63,3.63,0,0,0-1.5-.68,4.56,4.56,0,0,1-1.31-.45.68.68,0,0,1-.3-.6.65.65,0,0,1,.3-.59,1.47,1.47,0,0,1,.79-.2,3,3,0,0,1,1,.17,2.25,2.25,0,0,1,.78.43l.58-.83a3.29,3.29,0,0,0-1.06-.57A3.84,3.84,0,0,0,11.61,14a2.65,2.65,0,0,0-1.62.49,1.62,1.62,0,0,0-.65,1.39,1.57,1.57,0,0,0,.57,1.34,2.48,2.48,0,0,0,.66.38,8.32,8.32,0,0,0,1.09.31,3,3,0,0,1,1,.38.68.68,0,0,1,.29.58A.71.71,0,0,1,12.65,19.48Zm5-5.32H15.46v6.49h2.16a3.85,3.85,0,0,0,2.79-.88,3.17,3.17,0,0,0,.91-2.4A3,3,0,0,0,20.37,15,3.86,3.86,0,0,0,17.69,14.16Zm1.89,4.9a2.63,2.63,0,0,1-1.81.56H16.55V15.17h1.1q2.56,0,2.55,2.23A2.1,2.1,0,0,1,19.58,19.07Zm3.14-4.9v6.49h1.1V18.84l.95-1,2.16,2.84h1.3L25.58,17l2.61-2.84h-1.4l-3,3.17V14.16ZM42.07,25.89H41.5v-.07l0,0,.41-.4h0a1.54,1.54,0,0,0,0-2.14h0l-2.1-2.1,0,0h0a1.54,1.54,0,0,0-2.15,0l-.41.41,0,0-.07,0v-.58a1.52,1.52,0,0,0-1.52-1.52h-3A1.53,1.53,0,0,0,31,20.89v.58l-.11,0-.41-.41h0a1.55,1.55,0,0,0-2.15,0h0l-2,2a.89.89,0,0,0-.19.2,1.52,1.52,0,0,0,.1,2h0l.41.4,0,.07v0H26a1.53,1.53,0,0,0-1.53,1.52V30.3h0s0,.05,0,.08A1.53,1.53,0,0,0,26,31.93h.58V32l0,.05-.41.4h0a1.53,1.53,0,0,0,0,2.16l2.1,2.1.05,0a1.5,1.5,0,0,0,1,.41,1.55,1.55,0,0,0,1.09-.45l.41-.4.1,0h0v.59a1.52,1.52,0,0,0,1.53,1.51h2.8l.18,0a1.53,1.53,0,0,0,1.52-1.53v-.58h0l.07,0h0l.4.4a1.53,1.53,0,0,0,1.09.46,1.49,1.49,0,0,0,1.08-.46l2.1-2.08.07-.07a1.52,1.52,0,0,0,.39-1,1.48,1.48,0,0,0-.45-1.07l-.41-.41v-.12h.7a1.53,1.53,0,0,0,1.4-1.52v-3A1.52,1.52,0,0,0,42.07,25.89Zm-.19,4.32h-1a.85.85,0,0,0-.82.6c0,.15-.1.31-.18.51l-.25.53a.86.86,0,0,0,.16,1l.7.7-1.84,1.82-.7-.7a.86.86,0,0,0-1-.15,3.62,3.62,0,0,1-.44.21l-.13.05-.43.15a.86.86,0,0,0-.61.83v1h-2.6v-1a.86.86,0,0,0-.62-.83,4.52,4.52,0,0,1-.47-.18l-.12,0c-.12,0-.26-.12-.4-.19a.86.86,0,0,0-1,.15l-.71.7-1.85-1.83.7-.69a.86.86,0,0,0,.16-1c-.1-.2-.18-.35-.24-.5l-.06-.16c0-.13-.1-.26-.14-.38a.87.87,0,0,0-.82-.59h-1v-2.6h1A.86.86,0,0,0,28,27c0-.15.1-.3.17-.47v0a5.27,5.27,0,0,1,.23-.49.86.86,0,0,0-.16-1l-.7-.69,1.84-1.84.71.7a.86.86,0,0,0,1,.15,6,6,0,0,1,1-.42.86.86,0,0,0,.59-.82v-1h2.6v1a.86.86,0,0,0,.57.81l.17.06.36.13h0l.51.23a.86.86,0,0,0,1-.16l.7-.7,1.84,1.84-.7.7a.86.86,0,0,0-.17,1l.11.23.14.3c.07.19.13.34.18.51a.85.85,0,0,0,.82.61h1ZM34,24.78a4.13,4.13,0,1,0,4.13,4.14A4.15,4.15,0,0,0,34,24.78Zm0,7.07A2.94,2.94,0,1,1,37,28.91,3,3,0,0,1,34,31.85ZM3.86,2.72a1,1,0,1,0,1,1A1,1,0,0,0,3.86,2.72Zm3.44,0a1,1,0,1,0,1,1A1,1,0,0,0,7.3,2.72Zm3.44,0a1,1,0,1,0,1,1A1,1,0,0,0,10.74,2.72ZM23.47,31.09H2.53a.77.77,0,0,1-.77-.77V7.39H35.31V18.25h.24a2.6,2.6,0,0,1,1.53.5V2.53A2.54,2.54,0,0,0,34.54,0h-32A2.54,2.54,0,0,0,0,2.53V30.32a2.54,2.54,0,0,0,2.53,2.53H24.76a1.07,1.07,0,0,1,0-.12A2.62,2.62,0,0,1,23.47,31.09ZM2.53,1.77h32a.77.77,0,0,1,.77.77V5.62H1.77V2.53A.77.77,0,0,1,2.53,1.77Z"/></svg>