<svg id="图层_1" data-name="图层 1" xmlns="http://www.w3.org/2000/svg" viewBox="0 0 39.13 39.75"><defs><style>.cls-1{fill:#595757;}</style></defs><title>网页ICON</title><path class="cls-1" d="M39.12,12.28c0-.06,0-.12,0-.17a5.73,5.73,0,0,0-3-4.38L22.59.63a4,4,0,0,0-1.4-.45h0A7.45,7.45,0,0,0,19.52,0a7.32,7.32,0,0,0-1.76.21,4.15,4.15,0,0,0-1.22.42L3,7.72a5.75,5.75,0,0,0-3,4.39c0,.05,0,.11,0,.17s0,0,0,.06V27.4s0,0,0,.06,0,.12,0,.17A5.77,5.77,0,0,0,3,32l13.55,7.09a4,4,0,0,0,1.4.45h0a7.45,7.45,0,0,0,1.65.18,7.35,7.35,0,0,0,1.76-.21,4.08,4.08,0,0,0,1.22-.42L36.14,32a5.73,5.73,0,0,0,3-4.39c0-.05,0-.11,0-.17s0,0,0-.06V12.34a.29.29,0,0,1,0-.06ZM18.36,22.87V37.39a.14.14,0,0,1-.21.13L4.59,30.33l-1.34-.67.05,0L12,25.53a.14.14,0,0,1,.12,0l4,2a.14.14,0,0,0,.21-.13V26.32a.15.15,0,0,0-.07-.13l-3.54-1.85h0L16,22.6a.14.14,0,0,0,0-.24l-.78-.68a.14.14,0,0,0-.16,0l-2.85,1.5A.14.14,0,0,1,12,23V18.95a.14.14,0,0,0-.09-.13c-.37-.15-.73-.31-1.09-.5H10.8a.14.14,0,0,0-.14.14V23.6L2.47,27.31a.14.14,0,0,1-.2-.13V12.39a.14.14,0,0,1,.21-.13l14.38,7.47h0a2.3,2.3,0,0,1,.52.38h0a3,3,0,0,1,1,2.24,2.35,2.35,0,0,1,0,.5Zm1.2-4.74A3.61,3.61,0,0,1,18,17.8h0L4.22,10.36l-.05,0s-.8-.4-.78-.41L18.23,2.49a.14.14,0,0,1,.21.13L18.5,11a.14.14,0,0,1-.08.13L14,13.24a.14.14,0,0,0,0,.25,7,7,0,0,1,.86.62.14.14,0,0,0,.16,0l3.67-1.86a.14.14,0,0,1,.21.13v3.09h0c.37,0,.79,0,1.19,0a.14.14,0,0,0,.15-.14v-3a.14.14,0,0,1,.21-.13l3.39,1.78h.09c.32-.23.65-.44,1-.64a.14.14,0,0,0,0-.25l-4-2.05a.14.14,0,0,1-.08-.13V2.54A.14.14,0,0,1,21,2.41l14.78,7.64s-.73.34-.71.35l-.05,0-14,7.37h0a3.48,3.48,0,0,1-1.51.33ZM37,27.48a.14.14,0,0,1-.2.13l-8.44-4.08h0v0l.12-5.31a.15.15,0,0,0-.14-.15h-.15l-1,.51a.14.14,0,0,0-.08.13V23a.14.14,0,0,1-.21.13l-3-1.59a.14.14,0,0,0-.17,0l-.68.74a.15.15,0,0,0,0,.22l3.37,1.76h0L23,26.15a.15.15,0,0,0-.07.13v1.1a.14.14,0,0,0,.21.12l3.81-2.15a.14.14,0,0,1,.14,0l8.29,4.36.06,0s.09,0,.07,0L21,37.43a.14.14,0,0,1-.21-.13V22.94a2.79,2.79,0,0,1,0-.5,3,3,0,0,1,1-2.24h0a2.29,2.29,0,0,1,.53-.39l14.5-7.47a.14.14,0,0,1,.21.13Z"/></svg>