<svg id="图层_1" data-name="图层 1" xmlns="http://www.w3.org/2000/svg" viewBox="0 0 40.24 30.94"><defs><style>.cls-1{fill:#595757;}</style></defs><title>网页ICON</title><path class="cls-1" d="M19.62,30.18h-1v.75h-2v-.75h-1v.75H6v-.75H2.1A2.1,2.1,0,0,1,0,28.09V2.1A2.1,2.1,0,0,1,2.1,0h36a2.1,2.1,0,0,1,2.1,2.1v26a2.1,2.1,0,0,1-2.1,2.1h-13v.75h-2v-.75h-1v.75H19.62Zm0-2v-.75h2.52v.75h1v-.75h2v.75H37.08A1.15,1.15,0,0,0,38.23,27V2.85A.83.83,0,0,0,37.4,2H2.79A.78.78,0,0,0,2,2.79V27.42a.75.75,0,0,0,.75.75H6v-.75h9.56v.75h1v-.75h2v.75ZM10.44,6h7.29a1.38,1.38,0,0,1,1.38,1.38v7.29a1.38,1.38,0,0,1-1.38,1.38H10.44a1.38,1.38,0,0,1-1.38-1.38V7.42A1.38,1.38,0,0,1,10.44,6Zm2,8h3.27A1.38,1.38,0,0,0,17.1,12.7V9.43A1.38,1.38,0,0,0,15.72,8H12.45a1.38,1.38,0,0,0-1.38,1.38V12.7A1.38,1.38,0,0,0,12.45,14.08Zm14-8h4.66a.81.81,0,0,1,.81.81V8a.81.81,0,0,1-.81.81H26.47A.81.81,0,0,1,25.65,8V6.85A.81.81,0,0,1,26.47,6ZM26,11.57h1.4a.31.31,0,0,1,.31.31v12a.31.31,0,0,1-.31.31H26a.31.31,0,0,1-.31-.31v-12A.31.31,0,0,1,26,11.57Zm4.28,0h1.4a.31.31,0,0,1,.31.31v12a.31.31,0,0,1-.31.31h-1.4a.31.31,0,0,1-.31-.31v-12A.31.31,0,0,1,30.24,11.57ZM11.32,22.38a2,2,0,0,1-1.69-3.16,1.81,1.81,0,0,1,1.58-.87h0a2.09,2.09,0,0,1,2.07,1.53A2,2,0,0,1,11.32,22.38Zm6,0a2,2,0,0,1-1.69-3.16,1.81,1.81,0,0,1,1.58-.87h0a2.09,2.09,0,0,1,2.07,1.53A2,2,0,0,1,17.35,22.38Z"/></svg>