<svg id="图层_1" data-name="图层 1" xmlns="http://www.w3.org/2000/svg" viewBox="0 0 39.64 39.68"><defs><style>.cls-1{fill:#595757;}</style></defs><title>网页ICON</title><path class="cls-1" d="M5.58,17.88h0m.11,1.61.25,0H38V33.13H1.61V19.51H4l.25,0H5.69m.25-1.61H4v0H1.39A1.39,1.39,0,0,0,0,19.29V33.35a1.39,1.39,0,0,0,1.39,1.39H38.25a1.39,1.39,0,0,0,1.39-1.39V19.29a1.39,1.39,0,0,0-1.39-1.39H5.95v0Z"/><path class="cls-1" d="M12.93,30.61l-2.2-3.73H9v3.73H8.37V22.35h2.41c1.64,0,2.75.6,2.75,2.21a2.17,2.17,0,0,1-2.06,2.27l2.23,3.79ZM9,26.31h1.58c1.43,0,2.22-.57,2.22-1.76s-.79-1.64-2.22-1.64H9Z"/><path class="cls-1" d="M17,26.45c0-2.62,1.43-4.25,3.42-4.25s3.43,1.63,3.43,4.25-1.42,4.31-3.43,4.31S17,29.08,17,26.45Zm6.15,0c0-2.24-1.09-3.64-2.73-3.64s-2.71,1.39-2.71,3.64,1.08,3.7,2.71,3.7S23.16,28.69,23.16,26.45Z"/><path class="cls-1" d="M27.4,29.52l.42-.48a3.18,3.18,0,0,0,2.39,1.1c1.22,0,2-.65,2-1.59s-.65-1.31-1.46-1.68l-1.23-.54a2.29,2.29,0,0,1-1.68-2.06,2.2,2.2,0,0,1,2.45-2.07,3.15,3.15,0,0,1,2.33,1l-.38.44a2.65,2.65,0,0,0-1.95-.83c-1.05,0-1.76.56-1.76,1.41s.81,1.29,1.41,1.55l1.24.54c.94.42,1.73.94,1.73,2.2a2.38,2.38,0,0,1-2.68,2.24A3.68,3.68,0,0,1,27.4,29.52Z"/><path class="cls-1" d="M34.08,18.37V9.93a.4.4,0,0,0-.4-.4H26.15V1a.61.61,0,0,1,.6-.61.62.62,0,0,1,.32.08,1.63,1.63,0,0,1,.35.22l.23.19.7.57C29.05,2,30,2.88,31.11,3.89a1.69,1.69,0,0,0,.21.19l1.4,1.28,1.2,1.1.85.79a3.23,3.23,0,0,0,.37.34.61.61,0,0,1,.12.49v10.3ZM27.73,2.61a.4.4,0,0,0-.4.4V8a.4.4,0,0,0,.4.4h5.51a.4.4,0,0,0,.28-.7l-.42-.39c-.86-.81-1.76-1.62-2.59-2.37a1.86,1.86,0,0,0-.22-.19c-.89-.8-1.67-1.49-2.29-2A.4.4,0,0,0,27.73,2.61Z"/><path class="cls-1" d="M26.76.81a.24.24,0,0,1,.14,0l0,0a1.18,1.18,0,0,1,.22.14l.26.21.68.56c.66.57,1.51,1.32,2.73,2.41a2,2,0,0,0,.23.21l1.37,1.26,1.21,1.11.83.77c.15.15.26.26.35.33a.2.2,0,0,1,0,.15.8.8,0,0,0,0,.13V18h-.37v-8a.81.81,0,0,0-.81-.81H26.55V1a.2.2,0,0,1,.2-.2m1,8h5.51a.81.81,0,0,0,.55-1.39L33.37,7C32.5,6.2,31.6,5.39,30.8,4.66a2.1,2.1,0,0,0-.25-.22c-.9-.81-1.67-1.49-2.29-2A.81.81,0,0,0,26.92,3V8a.81.81,0,0,0,.81.81m-1-8.8a1,1,0,0,0-1,1V9.93h7.93v8.85h2V8.14a1,1,0,0,0-.3-.88A3.1,3.1,0,0,1,35,7l-.85-.79-2.62-2.4-.2-.18c-1.13-1-2.06-1.84-2.76-2.44-.4-.34-.73-.59-1-.77a2,2,0,0,0-.42-.26A1,1,0,0,0,26.74,0Zm1,8V3c.62.54,1.39,1.23,2.3,2l.2.18C31.06,6,32,6.8,32.82,7.61l.41.38Z"/><path class="cls-1" d="M4.35,18.37V.46H22.77a.58.58,0,0,1,.59.59.58.58,0,0,1-.59.59H5.93a.4.4,0,0,0-.4.4V18.37Z"/><path class="cls-1" d="M22.77.87a.17.17,0,0,1,.18.18.17.17,0,0,1-.18.18H5.93A.81.81,0,0,0,5.12,2V18H4.75V.87h18m0-.81H3.94V18.78h2V2H22.77a1,1,0,0,0,1-1,1,1,0,0,0-1-1Z"/><path class="cls-1" d="M8.9,39.28a4.56,4.56,0,0,1-4.55-4.55v-.06H5.52v.06A3.38,3.38,0,0,0,8.9,38.1H33.68a.4.4,0,0,0,.4-.4v-3h1.17v4.61Z"/><path class="cls-1" d="M34.85,35.07v3.8H8.9a4.15,4.15,0,0,1-4.13-3.8h.37A3.79,3.79,0,0,0,8.9,38.51H33.68a.81.81,0,0,0,.81-.81V35.07h.37m.81-.81h-2V37.7H8.9a3,3,0,0,1-3-3v-.46h-2v.46a5,5,0,0,0,5,5H35.66V34.26Z"/></svg>