<svg id="图层_1" data-name="图层 1" xmlns="http://www.w3.org/2000/svg" viewBox="0 0 38.85 36.69"><defs><style>.cls-1{fill:#595757;}</style></defs><title>网页ICON</title><path class="cls-1" d="M15.11,21.46v13.2a2,2,0,0,0,2,2H36.81a2,2,0,0,0,2-2V21.46a2,2,0,0,0-2-2H17.14A2,2,0,0,0,15.11,21.46ZM35.85,34.53H18.1a.84.84,0,0,1-.84-.84V22.42a.84.84,0,0,1,.84-.84H35.85a.84.84,0,0,1,.84.84V33.7A.84.84,0,0,1,35.85,34.53ZM35,28.27l-4.53-4.53-1.51,1.51,3,3,1.51,1.51Zm-9.51,3.12-1.53,1.53-3.05-3.05,1.53-1.53Zm-3-3.12,3-3L24,23.74l-4.53,4.53,1.51,1.51Zm11,1.58-3.05,3.05-1.53-1.53,3.05-3.05ZM28.06,8.63a8.63,8.63,0,1,0-8.63,8.63A8.66,8.66,0,0,0,28.06,8.63Zm-15.11.22a6.36,6.36,0,0,1,6.47-6.47A6.36,6.36,0,0,1,25.9,8.85a6.36,6.36,0,0,1-6.47,6.47A6.64,6.64,0,0,1,12.95,8.85Zm-1.29,8.42A16.19,16.19,0,0,0,0,32.8a1.21,1.21,0,0,0,1.29,1.08A1.21,1.21,0,0,0,2.59,32.8,13.48,13.48,0,0,1,12.3,19.42a1.23,1.23,0,0,0,.86-1.51A1.32,1.32,0,0,0,11.65,17.27Z"/></svg>