<?xml version="1.0" encoding="UTF-8" standalone="no"?>
<svg width="99px" height="99px" viewBox="0 0 99 99" version="1.1" xmlns="http://www.w3.org/2000/svg" xmlns:xlink="http://www.w3.org/1999/xlink">
    <!-- Generator: Sketch 41.2 (35397) - http://www.bohemiancoding.com/sketch -->
    <title>腾讯视频</title>
    <desc>Created with Sketch.</desc>
    <defs></defs>
    <g id="Page-1" stroke="none" stroke-width="1" fill="none" fill-rule="evenodd">
        <g id="腾讯视频" transform="translate(14.000000, 15.000000)" fill="#818181">
            <g id="Group">
                <path d="M38.5715365,30.9861331 L25.0123913,20.5670239 C23.2131175,19.184422 21.7409545,19.9207528 21.7409545,22.2033698 L21.7409545,44.7965472 C21.7409545,47.0791642 23.2131175,47.815495 25.0123913,46.432893 L38.5715365,36.0137838 C40.3708103,34.631182 40.3708103,32.368735 38.5715365,30.9861331 Z" id="Shape"></path>
                <path d="M69.0971076,26.5579391 C55.0635777,12.9717195 36.8984035,4.71943636 25.8515481,0.593875833 C20.5454131,-1.38776776 14.7393199,1.97066743 13.7548628,7.59445479 C13.7051137,7.87866132 13.6568447,8.16220386 13.6090691,8.44549738 C23.8120806,11.6395012 40.2833999,17.9239193 53.04475,28.1893877 C56.6154216,31.061667 56.5227485,35.8741707 52.7863012,38.5941372 C45.5628924,43.8523738 32.22215,52.2400368 13.54715,58.5449571 C13.5893339,58.8055905 13.6315179,59.0636507 13.6738663,59.3163987 C14.6380126,65.0770601 20.6288765,68.4928512 26.0010423,66.3187207 C46.3877413,58.0680147 60.9453226,47.054761 68.8164568,40.1590995 C72.8748343,36.6036121 72.9754015,30.3126366 69.0971076,26.5579391 Z" id="Shape"></path>
                <path d="M13.6090691,8.44549738 C13.482106,8.40573832 13.3552252,8.36606231 13.2302356,8.32729933 C8.34503577,6.81139261 2.99959481,9.3805403 2.09325616,13.6826509 C-1.37018756,30.1228888 0.288719679,44.6613333 2.01859136,53.2492026 C2.90626377,57.6560646 8.42183855,60.2690385 13.3677241,58.6058823 C13.427752,58.5857123 13.487122,58.5652102 13.5470677,58.5449571 C11.7413799,47.3847859 10.1226009,29.1040946 13.6090691,8.44549738 Z" id="Shape"></path>
            </g>
        </g>
    </g>
</svg>