<?xml version="1.0" encoding="UTF-8" standalone="no"?>
<svg width="36px" height="36px" viewBox="0 0 36 36" version="1.1" xmlns="http://www.w3.org/2000/svg" xmlns:xlink="http://www.w3.org/1999/xlink">
    <!-- Generator: Sketch 49.2 (51160) - http://www.bohemiancoding.com/sketch -->
    <title>icon_facebook</title>
    <desc>Created with Sketch.</desc>
    <defs></defs>
    <g id="SWIFT首页&amp;详情制作" stroke="none" stroke-width="1" fill="none" fill-rule="evenodd">
        <g id="bottominfo@1920*1080" transform="translate(-788.000000, -1001.000000)" fill="#888888" fill-rule="nonzero">
            <g id="icon_Social-" transform="translate(788.000000, 1001.000000)">
                <g id="facebook">
                    <path d="M21.8682454,20.2689204 C22.6299565,20.2689204 23.38647,20.2605894 24.142456,20.2741292 C24.3687475,20.2772737 24.4802498,20.2064686 24.5084375,19.9813676 C24.6168819,19.1272712 24.7326366,18.2742058 24.8421407,17.4206137 C24.8494284,17.3602531 24.8285307,17.2967704 24.8155179,17.1921373 C23.8265028,17.1921373 22.8510528,17.1921373 21.8859506,17.1921373 C21.8859506,16.329181 21.8364768,15.5073526 21.9036984,14.6948885 C21.9485516,14.144202 22.4386576,13.8704445 23.1894236,13.8511872 C23.7754193,13.835581 24.3624522,13.8480651 24.9787481,13.8480651 C24.9787481,12.9153616 24.9787481,12.020664 24.9787481,11.0546793 C24.499082,11.0192891 24.0100335,10.9443309 23.5225498,10.955784 C22.7817141,10.9729524 22.0168778,10.949013 21.3067105,11.1228666 C19.7265045,11.5095679 18.7249369,12.870605 18.6889811,14.5267704 C18.6696931,15.388671 18.6853484,16.2505493 18.6853484,17.1624602 C18.5284181,17.1718243 18.3918106,17.1863749 18.2552257,17.1869262 C17.6400321,17.1895194 17.0242637,17.1957615 16.4090701,17.184286 C16.1676733,17.1796039 16.043596,17.244669 16.0461936,17.5090646 C16.0540112,18.3194398 16.0534813,19.1298398 16.0466988,19.9401904 C16.0441012,20.1970574 16.1551657,20.2761688 16.4033226,20.2719932 C17.1467784,20.2605401 17.8902567,20.2678401 18.6566803,20.2678401 C18.6566803,22.8504198 18.6566803,25.392423 18.6566803,27.9656633 C15.1082845,27.9656633 11.5692711,27.9656633 8,27.9656633 C8,21.3202113 8,14.6745531 8,8 C14.656229,8 21.312503,8 28,8 C28,14.6417561 28,21.28691 28,27.9687406 C27.8962456,27.9770715 27.7836634,27.9937334 27.6715616,27.9947442 C25.8514518,27.9958223 24.0319191,27.9927248 22.2123167,27.9999777 C21.9641845,28.0010333 21.8223796,27.965688 21.8234371,27.6679238 C21.8312546,25.2633283 21.8281047,22.8587777 21.8296898,20.4531265 C21.8297122,20.4042168 21.8494851,20.355307 21.8682454,20.2689204 Z" id="Shape"></path>
                </g>
            </g>
        </g>
    </g>
</svg>