<?xml version="1.0" encoding="UTF-8" standalone="no"?>
<svg width="36px" height="36px" viewBox="0 0 36 36" version="1.1" xmlns="http://www.w3.org/2000/svg" xmlns:xlink="http://www.w3.org/1999/xlink">
    <!-- Generator: Sketch 49.2 (51160) - http://www.bohemiancoding.com/sketch -->
    <title>weibo</title>
    <desc>Created with Sketch.</desc>
    <defs></defs>
    <g id="SWIFT首页&amp;详情制作" stroke="none" stroke-width="1" fill="none" fill-rule="evenodd">
        <g id="bottominfo@1920*1080" transform="translate(-1293.000000, -1001.000000)" fill="#888888">
            <g id="icon_Social-" transform="translate(788.000000, 1001.000000)">
                <g id="chinesemedia" transform="translate(392.000000, 0.000000)">
                    <g id="微博-(1)" transform="translate(121.000000, 9.000000)">
                        <path d="M20.6432904,7.79665952 C20.5269377,8.10051815 20.2507941,8.28441073 19.9599124,8.28441073 C19.8672181,8.28441073 19.774136,8.26614601 19.682993,8.22712591 C19.3052347,8.06523401 19.1233367,7.60944606 19.2765344,7.20969761 C19.7702576,5.91912865 19.5301832,4.27696366 18.680033,3.12462547 C18.0327244,2.24791859 16.7633168,1.27822763 14.3943764,1.63646536 C13.9894691,1.69624083 13.6171406,1.39985413 13.5605156,0.973538794 C13.503115,0.545978139 13.7839128,0.150380772 14.1872687,0.0897750967 C16.5794795,-0.271368362 18.5877266,0.4646171 19.8412327,2.16157624 C21.0070864,3.74022976 21.3289955,6.00464077 20.6432904,7.79665952 Z M15.1568743,8.56128739 C15.1568743,8.56128739 18.3879879,8.64638442 18.3879879,11.5558723 C18.3879879,13.6654483 16.0461965,18 8.56084149,18 C2.61095388,18 0,14.6633665 0,12.0971724 C0,7.87677526 7.10643313,0.776362759 10.0140863,3.00092345 C10.7955884,3.59909326 10.9565429,5.28276897 9.96056408,6.10883272 C17.9031851,3.39942658 15.1568743,8.56128739 15.1568743,8.56128739 Z M8.00971769,7.81824511 C4.52224037,8.16236915 1.87444149,10.4720269 2.09628723,12.976785 C2.3154181,15.4823735 5.32041967,17.2337117 8.80712129,16.8895876 C12.2945986,16.5458787 14.9416218,14.236221 14.7213274,11.7310477 C14.5014209,9.22587437 11.4964193,7.47453616 8.00971769,7.81824511 Z M8.56704697,15.8289882 C6.67903099,16.1673007 4.92714765,15.0527373 4.65371888,13.3404192 C4.37951444,11.6285161 5.68770625,9.96476559 7.57572223,9.62603793 C9.46373819,9.2885556 11.2148458,10.4022888 11.4890503,12.115022 C11.7624791,13.8281704 10.4542872,15.4906756 8.56704697,15.8289882 Z M8.07254813,13.1162611 C7.91896261,12.5239029 7.29919071,12.1884961 6.6891149,12.3665771 C6.0802026,12.5446582 5.71020111,13.1685647 5.86339878,13.7617532 C6.01814783,14.3532813 6.63753188,14.6886881 7.24760771,14.5114372 C7.85729569,14.3325259 8.22652148,13.7086195 8.07254813,13.1162611 Z M8.83155535,11.4085092 C8.51817885,11.4085092 8.26375433,11.6779139 8.26375433,12.0095848 C8.26375433,12.3416707 8.51817885,12.6098301 8.83155535,12.6098301 C9.14493188,12.6098301 9.3985807,12.3416707 9.3985807,12.0095848 C9.3985807,11.678329 9.14493188,11.4085092 8.83155535,11.4085092 Z M15.1052912,4.47123394 C14.7003839,4.53100941 14.3288311,4.23503782 14.2710426,3.8083074 C14.213642,3.38157695 14.4944397,2.98597958 14.8962443,2.92495879 C16.5352655,2.67672455 17.4125646,3.49656171 17.7891595,4.00755896 C18.4035015,4.83943424 18.5652318,5.99052711 18.2018236,6.93987779 C18.0862466,7.24332131 17.8093272,7.42762901 17.5184456,7.42762901 C17.4257513,7.42762901 17.3334448,7.40936429 17.2415262,7.37034418 C16.8641557,7.20845229 16.6818699,6.75307945 16.8350676,6.353331 C16.9971856,5.92535526 16.9130239,5.35707319 16.627572,4.96936285 C16.3107049,4.54055689 15.7828516,4.3682873 15.1052912,4.47123394 Z" id="Shape"></path>
                    </g>
                </g>
            </g>
        </g>
    </g>
</svg>