<?xml version="1.0" encoding="UTF-8" standalone="no"?>
<svg width="36px" height="36px" viewBox="0 0 36 36" version="1.1" xmlns="http://www.w3.org/2000/svg" xmlns:xlink="http://www.w3.org/1999/xlink">
    <!-- Generator: Sketch 49.2 (51160) - http://www.bohemiancoding.com/sketch -->
    <title>icon_reddit</title>
    <desc>Created with Sketch.</desc>
    <defs></defs>
    <g id="SWIFT首页&amp;详情制作" stroke="none" stroke-width="1" fill="none" fill-rule="evenodd">
        <g id="bottominfo@1920*1080" transform="translate(-1050.000000, -1001.000000)" fill="#888888">
            <g id="icon_Social-" transform="translate(788.000000, 1001.000000)">
                <g id="reddit-alien" transform="translate(262.000000, 0.000000)">
                    <path d="M28,18.5 C28,18.9342002 27.890253,19.3290977 27.6707589,19.6846927 C27.4512649,20.0402876 27.1555059,20.3116627 26.7834821,20.498818 C26.8727678,20.8431836 26.9174107,21.2025217 26.9174107,21.5768322 C26.9174107,22.7371947 26.5212053,23.8114657 25.7287946,24.7996454 C24.9363839,25.7878251 23.8556548,26.5682624 22.4866071,27.1409574 C21.1175595,27.7136525 19.6294643,28 18.0223214,28 C16.4151786,28 14.9289435,27.7136525 13.5636161,27.1409574 C12.1982887,26.5682624 11.1194197,25.7878251 10.3270089,24.7996454 C9.53459821,23.8114657 9.13839286,22.7371947 9.13839287,21.5768322 C9.13839287,21.2249803 9.17931549,20.8731284 9.26116072,20.5212766 C8.88169644,20.3341214 8.57663691,20.0590032 8.34598215,19.695922 C8.11532738,19.3328408 8,18.9342002 8,18.5 C8,17.8861308 8.21577381,17.3602246 8.64732142,16.9222813 C9.07886904,16.4843381 9.60342261,16.2653664 10.2209821,16.2653664 C10.8534226,16.2653664 11.3928571,16.501182 11.8392857,16.9728133 C13.4613095,15.8349094 15.3772321,15.2285264 17.5870536,15.1536643 L18.8816964,9.3031915 C18.9040178,9.20587078 18.9598214,9.12726558 19.0491071,9.0673759 C19.1383928,9.00748622 19.235119,8.98877069 19.3392857,9.01122932 L23.4575893,9.92080378 C23.5915178,9.64381403 23.7924107,9.42109929 24.0602678,9.25265958 C24.328125,9.08421986 24.6220238,9 24.9419643,9 C25.4032738,9 25.797619,9.16282506 26.125,9.48847518 C26.4523809,9.8141253 26.6160714,10.2090229 26.6160714,10.6731678 C26.6160714,11.1373128 26.4523809,11.5340819 26.125,11.8634752 C25.797619,12.1928684 25.4032738,12.357565 24.9419643,12.357565 C24.4806547,12.357565 24.0881696,12.1947399 23.7645089,11.8690898 C23.4408482,11.5434397 23.2790179,11.1485422 23.2790178,10.6843972 L19.5513393,9.85342791 L18.390625,15.1536643 C20.6227678,15.2210402 22.5535714,15.819937 24.1830357,16.9503546 C24.6145833,16.4936958 25.1465774,16.2653664 25.7790179,16.2653664 C26.3965774,16.2653664 26.9211309,16.4843381 27.3526786,16.9222813 C27.7842262,17.3602246 28,17.8861308 28,18.5 L28,18.5 Z M12.6651786,20.7346336 C12.6651786,21.1987786 12.8270089,21.5955477 13.1506697,21.9249409 C13.4743304,22.2543342 13.8668155,22.4190308 14.328125,22.4190308 C14.7894345,22.4190307 15.1837798,22.2543341 15.5111607,21.9249409 C15.8385417,21.5955477 16.0022322,21.1987786 16.0022322,20.7346336 C16.0022321,20.2704886 15.8385417,19.875591 15.5111607,19.5499409 C15.1837798,19.2242908 14.7894346,19.0614658 14.328125,19.0614657 C13.874256,19.0614657 13.483631,19.2261624 13.15625,19.5555556 C12.8288691,19.8849488 12.6651786,20.2779748 12.6651786,20.7346336 Z M21.7053571,24.7210402 C21.7872024,24.6386919 21.828125,24.5413712 21.828125,24.429078 C21.828125,24.3167849 21.7872024,24.2194642 21.7053571,24.1371159 C21.6309524,24.0622538 21.5379464,24.0248227 21.4263393,24.0248227 C21.3147322,24.0248227 21.218006,24.0622538 21.1361607,24.1371159 C20.8311012,24.4515367 20.3809524,24.6836092 19.7857143,24.8333333 C19.1904762,24.9830575 18.5952381,25.0579196 18,25.0579196 C17.4047619,25.0579196 16.8095238,24.9830575 16.2142857,24.8333333 C15.6190476,24.6836092 15.1688988,24.4515367 14.8638393,24.1371159 C14.7819941,24.0622538 14.6852679,24.0248227 14.5736607,24.0248227 C14.4620536,24.0248227 14.3690477,24.0622538 14.2946429,24.1371159 C14.2127977,24.211978 14.171875,24.3074271 14.171875,24.4234634 C14.171875,24.5394996 14.2127977,24.6386919 14.2946429,24.7210402 C14.6145834,25.0429472 15.0554316,25.2974784 15.6171875,25.4846336 C16.1789435,25.6717888 16.6346727,25.7822104 16.984375,25.8158984 C17.3340774,25.8495863 17.6726191,25.8664303 18,25.8664303 C18.327381,25.8664303 18.6659227,25.8495863 19.015625,25.8158984 C19.3653274,25.7822104 19.8210566,25.6717888 20.3828125,25.4846336 C20.9445685,25.2974784 21.3854167,25.0429472 21.7053572,24.7210402 L21.7053571,24.7210402 Z M21.671875,22.4190308 C22.1331845,22.4190308 22.5256696,22.2543341 22.8493303,21.9249409 C23.1729911,21.5955477 23.3348214,21.1987786 23.3348214,20.7346336 C23.3348214,20.2779748 23.1711309,19.8849488 22.84375,19.5555556 C22.516369,19.2261624 22.125744,19.0614657 21.671875,19.0614657 C21.2105655,19.0614657 20.8162202,19.2242908 20.4888393,19.5499409 C20.1614583,19.875591 19.9977678,20.2704886 19.9977678,20.7346336 C19.9977679,21.1987786 20.1614583,21.5955477 20.4888393,21.9249409 C20.8162202,22.2543342 21.2105654,22.4190308 21.671875,22.4190308 L21.671875,22.4190308 Z" id="Shape"></path>
                </g>
            </g>
        </g>
    </g>
</svg>