<?xml version="1.0" encoding="UTF-8" standalone="no"?>
<svg width="36px" height="36px" viewBox="0 0 36 36" version="1.1" xmlns="http://www.w3.org/2000/svg" xmlns:xlink="http://www.w3.org/1999/xlink">
    <!-- Generator: Sketch 49.2 (51160) - http://www.bohemiancoding.com/sketch -->
    <title>icon_ins</title>
    <desc>Created with Sketch.</desc>
    <defs></defs>
    <g id="SWIFT首页&amp;详情制作" stroke="none" stroke-width="1" fill="none" fill-rule="evenodd">
        <g id="bottominfo@1920*1080" transform="translate(-946.000000, -1001.000000)" fill="#888888">
            <g id="icon_Social-" transform="translate(788.000000, 1001.000000)">
                <g id="ins" transform="translate(158.000000, 0.000000)">
                    <path d="M17.9999777,8 C15.2848437,8 14.9454018,8.01214286 13.8787277,8.06066964 C13.049952,8.07688866 12.2300538,8.23472168 11.4544866,8.52734375 C10.1069239,9.04256015 9.04241772,10.1070907 8.52723214,11.4546652 C8.23397096,12.2300507 8.07612379,13.0500617 8.06058036,13.8789062 C8.01212054,14.9454241 8,15.2848661 8,18 C8,20.7151339 8.01214286,21.0604911 8.06058036,22.1272991 C8.07740026,22.9560114 8.23521387,23.7758088 8.52725446,24.5515402 C9.04739173,25.8958968 10.1101642,26.9586936 11.4545089,27.4788616 C12.2305129,27.7691336 13.0503597,27.9248581 13.87875,27.9393304 C14.9454241,27.9878571 15.2847768,28 18,28 C20.7152232,28 21.060625,27.9878571 22.1272991,27.9393304 C22.9556268,27.9242511 23.7753719,27.7685459 24.5515402,27.4788616 C25.8927286,26.9538579 26.9538216,25.8927406 27.4787946,24.5515402 C27.7684582,23.7753613 27.9242065,22.9556275 27.9393973,22.1272991 C27.9878571,21.0607813 28,20.7151339 28,18 C28,15.2848661 27.9878571,14.9454241 27.9393973,13.8789063 C27.9254885,13.0504458 27.7696993,12.2304968 27.4787946,11.4546652 C26.9586574,10.1103086 25.8958849,9.04751177 24.5515402,8.52734375 C23.775811,8.23529517 22.9560122,8.07748131 22.1272991,8.06066964 C21.060625,8.01214286 20.7152009,8 17.9999777,8 L17.9999777,8 Z M17.9999777,9.80604911 C20.6727232,9.80604911 20.9878795,9.81196429 22.042433,9.86049107 C22.6758291,9.86867486 23.3031239,9.98548903 23.8970089,10.2058482 C24.7710958,10.5405249 25.4625458,11.2297445 25.8000446,12.1027455 C26.0173079,12.699327 26.1320673,13.3283681 26.1394643,13.9632366 C26.1879241,15.0179241 26.2000446,15.3327902 26.2000446,17.9996875 C26.2000446,20.6665848 26.1879018,20.9876786 26.1394643,22.0420536 C26.1323091,22.6750201 26.0175321,23.3021574 25.8000446,23.8966295 C25.6385539,24.3316937 25.3817772,24.7251186 25.0485268,25.0480804 C24.7266243,25.3826869 24.3328511,25.6397169 23.8969866,25.7997321 C23.3025249,26.0172574 22.675381,26.1320357 22.0424107,26.1391518 C20.9878795,26.1876786 20.6727009,26.1998214 17.9999554,26.1998214 C15.3272098,26.1998214 15.0181027,26.1876786 13.9635714,26.1391518 C13.3286758,26.1317345 12.6996087,26.0169758 12.1029911,25.7997321 C11.6689521,25.6395978 11.2771826,25.3825204 10.9575223,25.0480804 C10.6242836,24.7251089 10.3675087,24.3316869 10.2060045,23.8966295 C9.98865635,23.3019137 9.87191661,22.6751401 9.86058036,22.0420536 C9.81212054,20.9873661 9.80604911,20.6725 9.80604911,17.9996875 C9.80604911,15.326875 9.81212054,15.0179241 9.86058036,13.9632366 C9.87216091,13.3282499 9.98888325,12.699571 10.2060045,12.1027455 C10.543484,11.2318485 11.2320598,10.543297 12.1029687,10.2058482 C12.6989738,9.98562933 13.3282154,9.86883078 13.9635491,9.86049107 C15.0181473,9.81196429 15.3333036,9.80604911 17.9999777,9.80604911 L17.9999777,9.80604911 Z M17.9999777,12.8665402 C15.1632143,12.8683259 12.8649554,15.1691518 12.8666518,18.0059152 C12.8682812,20.8426786 15.1692634,23.1408482 18.0060268,23.139375 C20.8427232,23.1375893 23.1409598,20.8367634 23.1393527,18 C23.1404687,15.1658929 20.8438393,12.8677232 18.0097991,12.8665402 L17.9999777,12.8665402 L17.9999777,12.8665402 Z M17.9999777,21.3333259 C16.1590179,21.3333259 14.6666518,19.8409598 14.6666518,18 C14.6666518,16.1590402 16.1590179,14.6666741 17.9999777,14.6666741 C19.8409375,14.6666741 21.3333036,16.1590402 21.3333036,18 C21.3333259,19.8409598 19.8409598,21.3333259 17.9999777,21.3333259 Z M24.5393973,12.6667857 C24.5393973,13.3296652 24.0021429,13.8667634 23.3394196,13.8667634 C22.6766964,13.8667634 22.139442,13.3296429 22.139442,12.6667857 C22.139442,12.0041964 22.6766964,11.466808 23.3394196,11.466808 C24.0014732,11.4685714 24.5377009,12.0047991 24.5393973,12.6667857 Z" id="Shape"></path>
                </g>
            </g>
        </g>
    </g>
</svg>