<?xml version="1.0" encoding="UTF-8" standalone="no"?>
<svg width="36px" height="36px" viewBox="0 0 36 36" version="1.1" xmlns="http://www.w3.org/2000/svg" xmlns:xlink="http://www.w3.org/1999/xlink">
    <!-- Generator: Sketch 49.2 (51160) - http://www.bohemiancoding.com/sketch -->
    <title>icon_tencentvideo</title>
    <desc>Created with Sketch.</desc>
    <defs></defs>
    <g id="SWIFT首页&amp;详情制作" stroke="none" stroke-width="1" fill="none" fill-rule="evenodd">
        <g id="bottominfo@1920*1080" transform="translate(-1348.000000, -1001.000000)" fill="#888888">
            <g id="icon_Social-" transform="translate(788.000000, 1001.000000)">
                <g id="chinesemedia" transform="translate(392.000000, 0.000000)">
                    <g id="腾讯视频" transform="translate(177.000000, 9.000000)">
                        <g id="Group">
                            <path d="M9.64288412,8.32463277 L6.25309783,5.52546911 C5.80327937,5.15402383 5.43523862,5.35184403 5.43523862,5.96508442 L5.43523862,12.0348933 C5.43523862,12.6481337 5.80327937,12.8459539 6.25309783,12.4745086 L9.64288412,9.6753449 C10.0927026,9.30389964 10.0927026,8.69607806 9.64288412,8.32463277 Z" id="Shape"></path>
                            <path d="M17.2742769,7.1349687 C13.7658944,3.48493955 9.22460087,1.26790828 6.46288702,0.159548731 C5.13635328,-0.372833128 3.68482998,0.529433041 3.4387157,2.04030129 C3.42627842,2.11665528 3.41421117,2.19283089 3.40226727,2.2689396 C5.95302015,3.12703017 10.07085,4.81538131 13.2611875,7.57326833 C14.1538554,8.34492546 14.1306871,9.63783691 13.1965753,10.3685742 C11.3907231,11.7812347 8.05553751,14.0346368 3.38678749,15.7284959 C3.39733348,15.7985168 3.40787947,15.8678465 3.41846658,15.9357489 C3.65950316,17.4833893 5.15721913,18.4010645 6.50026057,17.8169697 C11.5969353,15.6003622 15.2363306,12.6415776 17.2041142,10.7890118 C18.2187086,9.83380624 18.2438504,8.14369341 17.2742769,7.1349687 Z" id="Shape"></path>
                            <path d="M3.40226727,2.2689396 C3.3705265,2.25825806 3.3388063,2.24759883 3.3075589,2.23718489 C2.08625894,1.82992637 0.749898703,2.52014515 0.52331404,3.67593607 C-0.342546891,8.09271641 0.0721799196,11.9985672 0.504647839,14.3057559 C0.726565942,15.489689 2.10545964,16.191682 3.34193103,15.7448639 C3.356938,15.7394451 3.37178051,15.7339371 3.38676692,15.7284959 C2.93534498,12.730241 2.53065021,7.8190105 3.40226727,2.2689396 Z" id="Shape"></path>
                        </g>
                    </g>
                </g>
            </g>
        </g>
    </g>
</svg>