<?xml version="1.0" encoding="UTF-8" standalone="no"?>
<svg width="36px" height="36px" viewBox="0 0 36 36" version="1.1" xmlns="http://www.w3.org/2000/svg" xmlns:xlink="http://www.w3.org/1999/xlink">
    <!-- Generator: Sketch 49.2 (51160) - http://www.bohemiancoding.com/sketch -->
    <title>icon_wechat</title>
    <desc>Created with Sketch.</desc>
    <defs></defs>
    <g id="SWIFT首页&amp;详情制作" stroke="none" stroke-width="1" fill="none" fill-rule="evenodd">
        <g id="bottominfo@1920*1080" transform="translate(-1240.000000, -1001.000000)" fill="#888888">
            <g id="icon_Social-" transform="translate(788.000000, 1001.000000)">
                <g id="chinesemedia" transform="translate(392.000000, 0.000000)">
                    <g id="微信" transform="translate(66.000000, 8.000000)">
                        <g id="Group">
                            <path d="M16.2440321,6.06065785 C16.5192021,6.06065785 16.7909425,6.08132185 17.0612724,6.11219064 C16.3270339,2.61680845 12.6711089,0.0201831215 8.49770168,0.0201831215 C3.83234054,0.0201831215 0.0102735676,3.27045238 0.0102735676,7.39771199 C0.0102735676,9.7800932 1.28174214,11.7364172 3.40687662,13.2537372 L2.55805084,15.8633376 L5.52440516,14.3425406 C6.58664051,14.5574915 7.43817678,14.7780394 8.497674,14.7780394 C8.76388281,14.7780394 9.02807257,14.7647251 9.29018797,14.7436936 C9.124129,14.1636882 9.02807257,13.5563192 9.02807257,12.9262227 C9.02812789,9.13625831 12.2120405,6.06065785 16.2440321,6.06065785 Z M11.6802037,3.70874967 C12.3191048,3.70874967 12.7424391,4.13831213 12.7424391,4.79122105 C12.7424391,5.44138798 12.3190772,5.87685848 11.6802037,5.87685848 C11.044096,5.87685848 10.4059693,5.44135972 10.4059693,4.79122105 C10.405997,4.13831213 11.0441237,3.70874967 11.6802037,3.70874967 Z M5.74060822,5.87688674 C5.10447289,5.87688674 4.46222514,5.44138798 4.46222514,4.79124931 C4.46222514,4.13834039 5.10450054,3.70877793 5.74060822,3.70877793 C6.37668822,3.70877793 6.80007776,4.13834039 6.80007776,4.79124931 C6.80007776,5.44138798 6.37668822,5.87688674 5.74060822,5.87688674 Z" id="Shape"></path>
                            <path d="M23.9896711,12.8217436 C23.9896711,9.35369674 20.5944786,6.5266579 16.7806537,6.5266579 C12.7424667,6.5266579 9.5619837,9.35369674 9.5619837,12.8217436 C9.5619837,16.2960661 12.7424667,19.1167446 16.7806537,19.1167446 C17.6260223,19.1167446 18.4789691,18.8985994 19.3277672,18.6812458 L21.6553311,19.9842934 L21.017149,17.8165238 C22.7209684,16.5102819 23.9896711,14.7780394 23.9896711,12.8217436 Z M14.4407268,11.7364172 C14.0180564,11.7364172 13.5912372,11.306883 13.5912372,10.8685574 C13.5912372,10.4361964 14.0180564,10.0010086 14.4407268,10.0010086 C15.0823384,10.0010086 15.5029621,10.4362247 15.5029621,10.8685574 C15.5029621,11.306883 15.0823384,11.7364172 14.4407268,11.7364172 Z M19.1088537,11.7364172 C18.6888938,11.7364172 18.2655595,11.306883 18.2655595,10.8685574 C18.2655595,10.4361964 18.6889214,10.0010086 19.1088537,10.0010086 C19.7449614,10.0010086 20.1710337,10.4362247 20.1710337,10.8685574 C20.1710614,11.306883 19.7449614,11.7364172 19.1088537,11.7364172 Z" id="Shape"></path>
                        </g>
                    </g>
                </g>
            </g>
        </g>
    </g>
</svg>