<?xml version="1.0" encoding="UTF-8" standalone="no"?>
<svg width="36px" height="36px" viewBox="0 0 36 36" version="1.1" xmlns="http://www.w3.org/2000/svg" xmlns:xlink="http://www.w3.org/1999/xlink">
    <!-- Generator: Sketch 49.2 (51160) - http://www.bohemiancoding.com/sketch -->
    <title>icon_googleplus</title>
    <desc>Created with Sketch.</desc>
    <defs></defs>
    <g id="SWIFT首页&amp;详情制作" stroke="none" stroke-width="1" fill="none" fill-rule="evenodd">
        <g id="bottominfo@1920*1080" transform="translate(-841.000000, -1001.000000)" fill="#888888">
            <g id="icon_Social-" transform="translate(788.000000, 1001.000000)">
                <g id="Google-Plus" transform="translate(53.000000, 0.000000)">
                    <g id="Group" transform="translate(6.000000, 11.000000)">
                        <path d="M7.81393722,6.61490551 L7.81393722,9.26092317 L12.2451658,9.26092317 C12.0666705,10.3975049 10.9058901,12.5905531 7.81393722,12.5905531 C5.14633146,12.5905531 2.96986827,10.4074846 2.96986827,7.71738977 C2.96986827,5.02729493 5.14633146,2.84450362 7.81393722,2.84450362 C9.33198873,2.84450362 10.3476715,3.48403874 10.9291843,4.03652833 L13.0497976,2.0189572 C11.6880697,0.762064159 9.92444697,0.00138606508 7.81505982,0.00138606508 C3.49412788,-2.75326636e-14 -6.56074835e-07,3.45077293 -6.56074835e-07,7.71738976 C-6.56074835e-07,11.9840066 3.49412788,15.4350567 7.81393722,15.4350567 C12.3231873,15.4350567 15.3146665,12.3039128 15.3146665,7.8948074 C15.3146665,7.38778107 15.2585359,7.00189772 15.1920211,6.61601438 L7.81393722,6.61601437 L7.81393722,6.61490551 Z" id="Shape"></path>
                        <polyline id="Shape" points="24.5571276 6.61490551 22.3239725 6.61490551 22.3239725 4.40993701 20.0916594 4.40993701 20.0916594 6.61490551 17.8593462 6.61490551 17.8593462 8.81987402 20.0916594 8.81987402 20.0916594 11.0251197 22.3239725 11.0251197 22.3239725 8.81987402 24.5571276 8.81987402"></polyline>
                    </g>
                </g>
            </g>
        </g>
    </g>
</svg>