<?xml version="1.0" encoding="UTF-8" standalone="no"?>
<svg width="36px" height="36px" viewBox="0 0 36 36" version="1.1" xmlns="http://www.w3.org/2000/svg" xmlns:xlink="http://www.w3.org/1999/xlink">
    <!-- Generator: Sketch 49.2 (51160) - http://www.bohemiancoding.com/sketch -->
    <title>icon_twitter</title>
    <desc>Created with Sketch.</desc>
    <defs></defs>
    <g id="SWIFT首页&amp;详情制作" stroke="none" stroke-width="1" fill="none" fill-rule="evenodd">
        <g id="bottominfo@1920*1080" transform="translate(-894.000000, -1001.000000)" fill="#888888">
            <g id="icon_Social-" transform="translate(788.000000, 1001.000000)">
                <g id="twitter" transform="translate(106.000000, 0.000000)">
                    <path d="M22.2833705,10.0010243 C23.9524939,9.97163707 24.8407463,10.5782228 25.6892474,11.3496984 C26.4089533,11.2877119 27.3445997,10.8863097 27.8960713,10.607634 C28.0748802,10.5098363 28.2533767,10.4120625 28.4321616,10.314888 C28.1172031,11.1637389 27.6900325,11.8278287 27.034448,12.3321582 C26.888685,12.4440024 26.7441238,12.5948459 26.5611812,12.6664204 L26.5611812,12.6766556 C27.4958662,12.6670676 28.2674843,12.2464893 29,12.0183186 L29,12.029177 C28.6148639,12.6389507 28.0944435,13.2576893 27.5388381,13.7012548 C27.3145098,13.8789446 27.0902056,14.0566585 26.8659254,14.2343244 C26.8781103,15.2212187 26.8518177,16.1633609 26.6662554,16.9930118 C25.5902536,21.8162384 22.7393332,25.0907849 18.2263311,26.4937751 C16.6058994,26.9974335 13.9869739,27.2038634 12.1303895,26.7443339 C11.2094516,26.5161152 10.3776297,26.2591804 9.59704709,25.9191175 C9.16382004,25.729922 8.76198068,25.5247624 8.37809431,25.2914621 C8.25184657,25.214734 8.12559883,25.1380539 8,25.061973 C8.41847051,25.0741497 8.90844055,25.1892059 9.37656418,25.1137482 C9.80017785,25.0453617 10.2154759,25.0639145 10.6060676,24.9782696 C11.581177,24.7647685 12.4463333,24.4829048 13.1916588,24.047609 C13.5531219,23.8373438 14.1017096,23.5893259 14.3586753,23.2850742 C13.8744973,23.2933918 13.4358387,23.1815237 13.0762982,23.0549379 C11.6823819,22.5640556 10.8710605,21.6615597 10.3436223,20.3064857 C10.7659622,20.3518849 11.9823434,20.4617876 12.2668755,20.2227823 C11.734943,20.1933711 11.2241841,19.8865546 10.8582507,19.6583839 C9.7373544,18.9584588 8.82285742,17.7849338 8.82989922,15.9798943 C8.97732043,16.048928 9.12438114,16.1185849 9.27146588,16.1882658 C9.55311393,16.3071572 9.83925624,16.3704381 10.1750997,16.4388246 C10.3173778,16.4682358 10.6009726,16.5519631 10.7640636,16.491247 L10.7429141,16.491247 C10.5263006,16.240065 10.1725522,16.0719392 9.95464086,15.8022044 C9.2352715,14.9099198 8.56137343,13.5375874 8.98789515,11.9032145 C9.09587746,11.4890362 9.26728406,11.1227741 9.45029882,10.785276 C9.45702818,10.7884879 9.46438242,10.7923232 9.47111179,10.7955112 C9.55474821,10.9706362 9.74156025,11.0984924 9.85980485,11.2448535 C10.2276609,11.6993014 10.6807636,12.1077508 11.1421819,12.4675889 C12.715508,13.6948308 14.1324724,14.449048 16.4082002,15.0070464 C16.9850031,15.1489251 17.6527727,15.2575812 18.3420281,15.2582284 C18.1484867,14.6957476 18.2103488,13.7855574 18.3628651,13.2409821 C18.7467274,11.8718856 19.5792223,10.8856145 20.8016839,10.3563801 C21.0936183,10.2304655 21.4178777,10.1377734 21.7578549,10.0642573 C21.9331309,10.0432116 22.1080704,10.022118 22.2833705,10.0010243" id="Shape"></path>
                </g>
            </g>
        </g>
    </g>
</svg>