<?xml version="1.0" encoding="UTF-8" standalone="no"?>
<svg width="36px" height="36px" viewBox="0 0 36 36" version="1.1" xmlns="http://www.w3.org/2000/svg" xmlns:xlink="http://www.w3.org/1999/xlink">
    <!-- Generator: Sketch 49.2 (51160) - http://www.bohemiancoding.com/sketch -->
    <title>icon_youku</title>
    <desc>Created with Sketch.</desc>
    <defs></defs>
    <g id="SWIFT首页&amp;详情制作" stroke="none" stroke-width="1" fill="none" fill-rule="evenodd">
        <g id="bottominfo@1920*1080" transform="translate(-1180.000000, -1001.000000)" fill="#888888" fill-rule="nonzero">
            <g id="icon_Social-" transform="translate(788.000000, 1001.000000)">
                <g id="chinesemedia" transform="translate(392.000000, 0.000000)">
                    <g id="youku_S-" transform="translate(4.000000, 14.000000)">
                        <path d="M8.80765856,0.00071680476 C9.4378299,-0.0112107185 9.98122598,0.125715847 10.4378632,0.411500602 C10.8945004,0.697285366 11.2432646,1.1092427 11.4841663,1.64738496 C11.7250681,2.18552722 11.8514075,2.82052262 11.8631886,3.5523902 C11.8718963,4.09333581 11.816241,4.58615572 11.696221,5.03086473 C11.576201,5.47557372 11.3916663,5.86261252 11.1426113,6.19199275 C10.8935563,6.52137298 10.5852345,6.77547919 10.2176366,6.95431904 C9.85003878,7.13315883 9.42716801,7.22710246 8.94901171,7.23615273 C8.47361933,7.24515071 8.04656227,7.1649068 7.6678278,6.99541862 C7.28909333,6.82593045 6.97138629,6.58287765 6.71469715,6.26625284 C6.45800796,5.94962808 6.26176871,5.56661339 6.12597338,5.11719729 C5.99017809,4.6677812 5.91805571,4.18056275 5.90960413,3.65552731 C5.90094763,3.11776374 5.96003213,2.62328745 6.08685943,2.17208358 C6.21368673,1.72087972 6.40170193,1.33536652 6.6509106,1.01553239 C6.90011927,0.695698263 7.20579246,0.448803836 7.56793935,0.2748417 C7.93008622,0.100879564 8.34332181,0.00950550563 8.80765856,0.00071680476 Z M10.6190693,3.5925845 C10.6108225,3.0802772 10.5318166,2.63775039 10.3820492,2.26499082 C10.2322817,1.89223125 10.022493,1.6121233 9.75267686,1.42465857 C9.48286067,1.23719386 9.17521289,1.14673246 8.82972424,1.15327167 C8.58373629,1.15792759 8.35726613,1.21552858 8.1503069,1.32607637 C7.94334771,1.43662415 7.76619333,1.59514628 7.61883848,1.80164748 C7.47148364,2.00814869 7.35682462,2.27052543 7.2748581,2.5887856 C7.19289153,2.90704576 7.15508455,3.26345653 7.16143607,3.65802862 C7.16783883,4.05578274 7.21715775,4.41452314 7.30939429,4.73426058 C7.40163084,5.05399805 7.52891274,5.31816138 7.69124379,5.52675853 C7.85357483,5.73535569 8.03853834,5.89020681 8.24613993,5.99131652 C8.45374147,6.09242622 8.68053282,6.14065238 8.92652073,6.13599645 C9.24160637,6.1300327 9.52966175,6.03386636 9.79069544,5.84749453 C10.0517291,5.66112268 10.2572756,5.37713222 10.4073411,4.99551457 C10.5574066,4.61389691 10.6279819,4.14625824 10.6190693,3.5925845 Z M12.1306399,4.22753643 L12.1306399,0.862040829 C12.1306399,0.57561424 12.1866168,0.360797517 12.2985722,0.217584227 C12.4105276,0.0743709277 12.5577259,0.00276535976 12.7401717,0.00276535976 C12.9309105,0.00276535976 13.0822553,0.0743709277 13.1942107,0.217584227 C13.3061661,0.360797517 13.3621429,0.57561424 13.3621429,0.862040829 L13.3621429,4.30391648 C13.3621429,4.69536615 13.4001519,5.02236495 13.476171,5.28492262 C13.5521901,5.54748033 13.6869491,5.75115842 13.8804523,5.89596296 C14.0739554,6.04076755 14.3448557,6.1131687 14.6931613,6.1131687 C15.1741548,6.1131687 15.5141623,5.96597947 15.7131941,5.67159658 C15.9122259,5.37721369 16.0117403,4.9308723 16.0117403,4.33255899 L16.0117403,0.862040829 C16.0117403,0.57243172 16.067026,0.356819386 16.1775992,0.215197347 C16.2881724,0.0735753072 16.4360619,0.00276535976 16.621272,0.00276535976 C16.8064822,0.00276535976 16.9564448,0.0735753072 17.0711646,0.215197347 C17.1858843,0.356819386 17.2432432,0.57243172 17.2432432,0.862040829 L17.2432432,4.22753643 C17.2432432,4.77492947 17.1969414,5.23161388 17.1043363,5.59760342 C17.0117313,5.96359295 16.83689,6.28502242 16.5798073,6.56190144 C16.3586609,6.7974078 16.101582,6.96926116 15.808563,7.07746673 C15.515544,7.18567235 15.1727722,7.23977432 14.7802373,7.23977432 C14.3130655,7.23977432 13.9108614,7.18169427 13.5736131,7.06553235 C13.2363648,6.94937047 12.9613181,6.76956091 12.7484647,6.52609831 C12.5356112,6.28263569 12.3794289,5.97075368 12.2799131,5.59044279 C12.1803971,5.21013195 12.1306399,4.75583437 12.1306399,4.22753643 Z M0.854308933,8.83393803 C0.519097939,8.49977534 0.710083794,7.93647253 0.710083794,7.93647253 L2.27493485,5.11513284 L0.445746033,1.93799244 C0.28334163,1.63963141 0.168450876,1.40691329 0.101070318,1.23983111 C0.0336897691,1.07274894 0,0.927548747 0,0.804226186 C0,0.601340681 0.0682433797,0.42630484 0.204732187,0.2791134 C0.341220994,0.131921951 0.509669848,0.0583273416 0.710083794,0.0583273416 C0.920863978,0.0583273416 1.08067443,0.126949347 1.18951993,0.264195417 C1.29836544,0.401441497 1.46163124,0.674935007 1.67932226,1.08468416 L3.09948983,3.74008405 L4.53520669,1.08468416 C4.62159202,0.921580119 4.6941546,0.784336109 4.75289662,0.672947987 C4.81163864,0.561559865 4.87642666,0.457135081 4.94726263,0.359670468 C5.01809856,0.262205865 5.09670804,0.187616735 5.18309334,0.135900819 C5.26947871,0.0841849028 5.37486718,0.0583273416 5.49926206,0.0583273416 C5.6927652,0.0583273416 5.8543033,0.13092743 5.98388131,0.2761298 C6.11345928,0.421332169 6.17824728,0.589406364 6.17824728,0.78035743 C6.17824728,0.935505159 6.14542138,1.09065056 6.07976854,1.2457983 C6.01411569,1.40094604 5.90181646,1.61576276 5.74286745,1.89025491 L1.78593959,8.72548957 C1.78593959,8.92757075 1.18951993,9.16810071 0.854308933,8.83393803 Z" id="Shape"></path>
                        <path d="M19.3430646,0.941531948 L19.3430646,3.41231166 L21.9263975,0.4896773 C22.050469,0.348672304 22.1560759,0.244522455 22.2432214,0.17722461 C22.3303668,0.109926776 22.4463128,0.0762783628 22.591063,0.0762783628 C22.7801243,0.0762783628 22.9329958,0.136364812 23.0496821,0.256539531 C23.1663684,0.37671424 23.2247106,0.523325185 23.2247106,0.696376769 C23.2247106,0.9046796 23.1257503,1.111377 22.9278267,1.31647518 L21.3281986,2.960457 L23.1715374,5.82540779 C23.3015171,6.02409665 23.3990004,6.19794679 23.4639902,6.34696343 C23.52898,6.49598008 23.5614745,6.64098869 23.5614745,6.78199372 C23.5614745,6.93902198 23.5046092,7.07521797 23.390877,7.19058564 C23.2771448,7.30595337 23.1227962,7.36363636 22.9278267,7.36363636 C22.7446736,7.36363636 22.5954946,7.3211753 22.4802854,7.23625184 C22.3650761,7.15132838 22.2675928,7.03836583 22.1878326,6.89736086 C22.1080723,6.75635584 22.0371754,6.62817142 21.9751396,6.51280369 L20.4198226,3.91704291 L19.3430646,5.03706562 L19.3430646,6.49357585 C19.3430646,6.78840443 19.2810298,7.00711913 19.1569582,7.14972648 C19.0328867,7.29233377 18.8733686,7.36363636 18.6783991,7.36363636 C18.566144,7.36363636 18.4583216,7.33159029 18.3549286,7.26749711 C18.2515357,7.20340392 18.1717767,7.11687941 18.1156491,7.00792103 C18.0742919,6.91819055 18.0491826,6.81404073 18.0403203,6.69546836 C18.0314581,6.57689593 18.027027,6.40544928 18.027027,6.18112312 L18.027027,0.941531948 C18.027027,0.653112648 18.0853693,0.436801414 18.2020556,0.292591759 C18.3187419,0.148382104 18.4775215,0.0762783628 18.6783991,0.0762783628 C18.8763227,0.0762783628 19.0365794,0.147580956 19.1591738,0.290188277 C19.2817683,0.432795598 19.3430646,0.649907989 19.3430646,0.941531948 Z M23.4796006,0.953020377 C23.474797,0.664644994 23.5310045,0.447272727 23.6482249,0.300897057 C23.7654452,0.154521378 23.9215229,0.0795518633 24.1164628,0.0759862624 C24.3202635,0.0722585826 24.4831733,0.141393567 24.6051973,0.28339327 C24.7272212,0.425392973 24.7906341,0.640577286 24.7954377,0.928952659 L24.8531609,4.39424614 C24.8597258,4.78835915 24.9058218,5.11683992 24.99145,5.37969839 C25.0770782,5.6425568 25.2244816,5.84498704 25.4336644,5.98699511 C25.6428472,6.12900318 25.9335132,6.19660267 26.305671,6.18979557 C26.8196032,6.18039537 27.1804262,6.0255598 27.3881507,5.72528425 C27.5958753,5.4250087 27.694719,4.9736856 27.6846847,4.37130148 L27.6264812,0.877170627 C27.6216242,0.585591075 27.67708,0.367431282 27.7928502,0.22268471 C27.9086204,0.0779381288 28.0654499,0.00375614002 28.2633433,0.000136512823 C28.4612367,-0.00348311437 28.6226565,0.0648778479 28.7476074,0.205221435 C28.8725583,0.345565032 28.9374613,0.561523367 28.9423183,0.853102919 L28.9987605,4.24149667 C29.0079407,4.79261405 28.9661271,5.25331058 28.8733183,5.62360004 C28.7805096,5.9938895 28.5990857,6.3209229 28.3290413,6.60471003 C28.0967003,6.84614058 27.8248986,7.02418741 27.5136282,7.13885581 C27.2023578,7.25352421 26.83702,7.31469321 26.4176041,7.32236467 C25.9184401,7.33149473 25.4877188,7.28087991 25.1254274,7.17051867 C24.763136,7.06015738 24.4662383,6.88449981 24.2347254,6.64354059 C24.0032126,6.40258136 23.8311043,6.09162971 23.7183954,5.71067615 C23.6056864,5.3297226 23.5449029,4.87330649 23.5360428,4.34141412 L23.4796006,0.953020377 Z" id="Shape"></path>
                    </g>
                </g>
            </g>
        </g>
    </g>
</svg>