<?xml version="1.0" encoding="UTF-8" standalone="no"?>
<svg width="24px" height="24px" viewBox="0 0 24 24" version="1.1" xmlns="http://www.w3.org/2000/svg" xmlns:xlink="http://www.w3.org/1999/xlink">
    <!-- Generator: Sketch 46.2 (44496) - http://www.bohemiancoding.com/sketch -->
    <title>icon_picture</title>
    <desc>Created with Sketch.</desc>
    <defs></defs>
    <g id="metal官网" stroke="none" stroke-width="1" fill="none" fill-rule="evenodd">
        <g id="关于2.0" transform="translate(-1352.000000, -1453.000000)" fill="#FFFFFF">
            <g id="icon_picture" transform="translate(1352.000000, 1453.000000)">
                <g transform="translate(3.000000, 4.000000)">
                    <path d="M16.3636364,1.45454545 L16.3636364,14.5454545 L1.63636364,14.5454545 L1.63636364,1.45454545 L16.3636364,1.45454545 Z M0,0 L0,0.727272727 L0,15.2727273 L0,16 L0.818181818,16 L17.1818182,16 L18,16 L18,15.2727273 L18,0.727272727 L18,0 L17.1818182,0 L0.818181818,0 L0,0 Z" id="Rectangle-28" fill-rule="nonzero"></path>
                    <rect id="Rectangle-29" transform="translate(3.729968, 10.129243) rotate(-135.000000) translate(-3.729968, -10.129243) " x="2.97996759" y="5.60427185" width="1.5" height="9.04994151"></rect>
                    <rect id="Rectangle-29-Copy" transform="translate(9.188766, 10.257572) rotate(-45.000000) translate(-9.188766, -10.257572) " x="8.43876576" y="6.33054045" width="1.5" height="7.8540639"></rect>
                    <rect id="Rectangle-29-Copy-2" transform="translate(11.750000, 9.811302) rotate(-315.000000) translate(-11.750000, -9.811302) " x="11" y="7.99973428" width="1.5" height="3.62313481"></rect>
                    <rect id="Rectangle-29-Copy-3" transform="translate(14.465763, 11.012138) rotate(-225.000000) translate(-14.465763, -11.012138) " x="13.715763" y="7.54496151" width="1.5" height="6.93435288"></rect>
                    <path d="M12.5,7 C11.6715729,7 11,6.32842712 11,5.5 C11,4.67157288 11.6715729,4 12.5,4 C13.3284271,4 14,4.67157288 14,5.5 C14,6.32842712 13.3284271,7 12.5,7 Z M12.5,6.25 C12.9142136,6.25 13.25,5.91421356 13.25,5.5 C13.25,5.08578644 12.9142136,4.75 12.5,4.75 C12.0857864,4.75 11.75,5.08578644 11.75,5.5 C11.75,5.91421356 12.0857864,6.25 12.5,6.25 Z" id="Combined-Shape"></path>
                </g>
            </g>
        </g>
    </g>
</svg>