<?xml version="1.0" encoding="utf-8"?>
<!-- Generator: Adobe Illustrator 21.0.0, SVG Export Plug-In . SVG Version: 6.00 Build 0)  -->
<svg version="1.1" id="图层_1" xmlns="http://www.w3.org/2000/svg" xmlns:xlink="http://www.w3.org/1999/xlink" x="0px" y="0px"
	 viewBox="0 0 96.5 9.2" style="enable-background:new 0 0 96.5 9.2;" xml:space="preserve">
<title>0</title>
<g>
	<path d="M2.4,4.9H0V4.2h2.4V1.5h0.8v2.6h2.4v0.7H3.2v2.6H2.4V4.9z"/>
	<path d="M6.7,6.8c0.1-1.1,0.7-2,1.6-2.5l0,0c-0.7-0.4-1.2-1.2-1.2-2C7.2,1,8.4,0,9.7,0.2c1.2,0.1,2.1,1.1,2.2,2.3
		c-0.1,0.8-0.5,1.6-1.2,2.1v0.1c0.9,0.4,1.5,1.3,1.5,2.3C12,8.3,10.9,9.2,9.5,9.1c0,0,0,0-0.1,0C8.1,9.3,6.8,8.3,6.7,6.9
		C6.7,6.9,6.7,6.8,6.7,6.8z M11.2,6.8c0-1.2-1.1-1.7-2.4-2.2C8.1,5.1,7.6,5.8,7.6,6.7c0,1,0.8,1.7,1.8,1.7c0,0,0.1,0,0.1,0
		c0.9,0.1,1.7-0.6,1.8-1.4C11.2,6.9,11.2,6.9,11.2,6.8z M11,2.4c0.1-0.8-0.6-1.6-1.4-1.6c-0.1,0-0.1,0-0.2,0C8.7,0.8,8,1.4,8,2.2
		c0,0,0,0.1,0,0.1c0,1.1,1,1.6,2,2C10.6,3.8,11,3.2,11,2.4z"/>
	<path d="M18.1,1.5c-0.4-0.4-0.9-0.7-1.4-0.7c-1.2,0-2.3,1-2.3,3.8c0.5-0.6,1.2-1,2-1.1c1.5,0,2.4,0.9,2.4,2.8
		c0.1,1.4-1,2.7-2.4,2.8c0,0,0,0-0.1,0c-1.7,0-2.9-1.5-2.9-4.3C13.4,1.3,15,0,16.6,0c0.8,0,1.5,0.3,2,0.9L18.1,1.5z M17.9,6.3
		c0-1.2-0.5-2-1.6-2c-0.8,0-1.5,0.5-1.9,1.1c0.1,1.9,0.8,2.9,2,2.9C17.2,8.3,17.8,7.5,17.9,6.3L17.9,6.3z"/>
	<path d="M26.9,1h-4.3V0.2H28v0.6c-2.1,2.6-2.5,4.8-2.6,8.2h-1C24.3,6.1,25.2,3.3,26.9,1z"/>
	<path d="M28.9,8l0.5-0.7c0.6,0.6,1.4,1,2.2,1c1.1,0,2-1,1.9-2.1c0,0,0-0.1,0-0.1c0.1-1-0.6-1.9-1.6-2.1c-0.1,0-0.2,0-0.3,0
		c-0.6,0-1.1,0.2-1.5,0.5l-0.5-0.3l0.3-4.1h4.2V1h-3.3l-0.2,2.7c0.4-0.2,0.9-0.4,1.4-0.4c1.4-0.1,2.6,1,2.6,2.4c0,0.1,0,0.3,0,0.4
		c0.1,1.6-1.1,2.9-2.7,3c-0.1,0-0.1,0-0.2,0C30.6,9.1,29.6,8.7,28.9,8z"/>
	<path d="M35.5,8L36,7.3c0.6,0.6,1.4,1,2.2,1c1.1,0,2-1,1.9-2.1c0,0,0-0.1,0-0.1c0.1-1-0.6-1.9-1.6-2.1c-0.1,0-0.2,0-0.3,0
		c-0.5,0-1.1,0.2-1.5,0.5l-0.5-0.3l0.3-4.1h4.2V1h-3.3l-0.2,2.7c0.4-0.2,0.9-0.4,1.4-0.4c1.4-0.1,2.6,1,2.6,2.3c0,0.2,0,0.3,0,0.5
		c0.1,1.6-1.1,2.9-2.7,3c-0.1,0-0.1,0-0.2,0C37.2,9.1,36.2,8.7,35.5,8z"/>
	<path d="M45,8.4C47.8,6,49,4.2,49,2.7c0.1-0.9-0.5-1.7-1.3-1.8c-0.1,0-0.2,0-0.3,0c-0.7,0-1.4,0.4-1.9,1l-0.6-0.5
		C45.5,0.5,46.5,0,47.5,0c1.3-0.1,2.4,0.9,2.5,2.2c0,0.1,0,0.2,0,0.4c0,1.8-1.4,3.6-3.5,5.6c0.5,0,1-0.1,1.4-0.1h2.5V9H45V8.4z"/>
	<path d="M51.4,7.9l0.5-0.6c0.6,0.6,1.4,1,2.2,1c0.9,0.1,1.7-0.6,1.8-1.5c0-0.1,0-0.1,0-0.2c0-1.1-0.7-1.8-2.8-1.8V4
		c1.8,0,2.5-0.8,2.5-1.7c0-0.8-0.6-1.4-1.4-1.5c0,0-0.1,0-0.1,0c-0.7,0-1.4,0.4-1.8,0.9l-0.5-0.6c0.6-0.6,1.5-1,2.4-1
		c1.2-0.2,2.3,0.7,2.5,1.9c0,0.1,0,0.2,0,0.3c0,1-0.6,1.9-1.6,2.1v0.1c1.1,0.2,1.9,1.1,1.9,2.2c0,1.4-1.1,2.5-2.5,2.5
		c-0.1,0-0.2,0-0.3,0C53.1,9.1,52.1,8.7,51.4,7.9z"/>
	<path d="M58,7.9l0.5-0.6c0.6,0.6,1.4,1,2.2,1c0.9,0.1,1.7-0.6,1.8-1.5c0-0.1,0-0.1,0-0.2c0-1.1-0.7-1.8-2.8-1.8V4
		c1.8,0,2.5-0.8,2.5-1.7c0-0.8-0.6-1.4-1.4-1.5c-0.1,0-0.1,0-0.2,0c-0.7,0-1.4,0.4-1.8,0.9l-0.5-0.6c0.7-0.6,1.5-1,2.4-1
		c1.2-0.2,2.3,0.7,2.5,1.9c0,0.1,0,0.2,0,0.3c0,1-0.6,1.9-1.6,2.1v0.1c1.1,0.2,1.9,1.1,1.9,2.2c0,1.4-1.1,2.5-2.5,2.5
		c-0.1,0-0.2,0-0.2,0C59.7,9.2,58.7,8.7,58,7.9z"/>
	<path d="M64.8,4.5c0-3,1-4.5,2.7-4.5s2.7,1.5,2.7,4.5s-1,4.6-2.7,4.6S64.8,7.6,64.8,4.5z M69.2,4.5c0-2.6-0.7-3.7-1.7-3.7
		S65.7,2,65.7,4.5s0.7,3.8,1.8,3.8S69.2,7.2,69.2,4.5L69.2,4.5z"/>
	<path d="M71.8,8.1h2V1.4h-1.6V0.8c0.6-0.1,1.2-0.3,1.8-0.6h0.7v8h1.8V9h-4.7L71.8,8.1z"/>
	<path d="M78.6,7.6c0.4,0.4,0.9,0.7,1.5,0.7c1.2,0,2.2-1,2.3-3.8c-0.5,0.7-1.2,1.1-2.1,1.1c-1.5,0-2.4-0.9-2.4-2.8
		c-0.1-1.4,0.9-2.7,2.4-2.8c0,0,0.1,0,0.1,0c1.7,0,2.9,1.4,2.9,4.1c0,3.6-1.5,5-3.2,5c-0.8,0-1.5-0.3-2-0.9L78.6,7.6z M82.3,3.6
		c-0.1-1.8-0.8-2.9-2-2.9c-0.9,0-1.5,0.8-1.5,2.1s0.5,2,1.6,2C81.2,4.8,81.9,4.3,82.3,3.6L82.3,3.6z"/>
	<path d="M84.3,8l0.5-0.7c0.6,0.6,1.4,1,2.2,1c1.1,0,2-1,1.9-2.1c0,0,0-0.1,0-0.1c0.1-1-0.6-1.9-1.6-2.1c-0.1,0-0.2,0-0.3,0
		c-0.5,0-1.1,0.2-1.5,0.5L85,4.3l0.3-4.1h4.2V1h-3.4l-0.2,2.7c0.4-0.2,0.9-0.4,1.4-0.4c1.4-0.1,2.6,1,2.6,2.3c0,0.2,0,0.3,0,0.5
		c0.1,1.6-1.1,2.9-2.7,3c-0.1,0-0.1,0-0.2,0C86,9.1,85,8.7,84.3,8z"/>
	<path d="M91.8,7.6c0.4,0.4,0.9,0.7,1.5,0.7c1.2,0,2.2-1,2.2-3.8c-0.5,0.7-1.2,1.1-2.1,1.1c-1.5,0-2.4-0.9-2.4-2.8
		C91,1.4,92,0.2,93.4,0c0,0,0.1,0,0.1,0c1.7,0,2.9,1.4,2.9,4.1c0,3.6-1.5,5-3.2,5c-0.8,0-1.5-0.3-2.1-0.9L91.8,7.6z M95.5,3.6
		c-0.1-1.8-0.8-2.9-2-2.9c-0.9,0-1.5,0.8-1.5,2.1s0.5,2,1.6,2C94.4,4.8,95.1,4.3,95.5,3.6L95.5,3.6z"/>
</g>
</svg>
