<?xml version="1.0" encoding="UTF-8" standalone="no"?>
<svg width="82px" height="66px" viewBox="0 0 82 66" version="1.1" xmlns="http://www.w3.org/2000/svg" xmlns:xlink="http://www.w3.org/1999/xlink">
    <!-- Generator: Sketch 45.1 (43504) - http://www.bohemiancoding.com/sketch -->
    <title>icon_wechat</title>
    <desc>Created with Sketch.</desc>
    <defs></defs>
    <g id="YCH-WORKS" stroke="none" stroke-width="1" fill="none" fill-rule="evenodd">
        <g id="Web-ID_My-acc_support-(redesign)_CN" transform="translate(-967.000000, -599.000000)">
            <g id="My-acc_support-(redesign)" transform="translate(0.000000, -2.000000)">
                <g id="Facebook" transform="translate(967.000000, 601.000000)">
                    <g id="icon_wechat" transform="translate(12.000000, 11.000000)">
                        <g id="wechat" fill-rule="nonzero" fill="#555555">
                            <path d="M28.9574617,14.7241331 C30.5116757,14.7241331 31.4932846,13.6607235 31.4932846,12.1883101 C31.4932846,10.6340961 30.5116757,9.65248723 28.9574617,9.65248723 C27.4032476,9.65248723 25.8490336,10.6340961 25.8490336,12.1883101 C25.9308343,13.6607234 27.4850484,14.7241331 28.9574617,14.7241331 L28.9574617,14.7241331" id="Shape"></path>
                            <path d="M14.7241331,9.57068648 C13.169919,9.57068648 11.615705,10.5522954 11.615705,12.1065094 C11.615705,13.6607234 13.169919,14.6423323 14.7241331,14.6423323 C16.2783471,14.6423323 17.259956,13.5789227 17.259956,12.1065094 C17.259956,10.6340961 16.1965463,9.57068648 14.7241331,9.57068648 L14.7241331,9.57068648" id="Shape"></path>
                            <path d="M59.5509381,31.0842809 C59.5509381,22.9860077 52.0252701,16.1147456 42.8635874,15.378539 C42.8635874,15.2967382 42.8635874,15.2149375 42.8635874,15.051336 C40.9821703,6.46225842 31.7386868,0 21.3499929,0 C9.57068648,0 0,8.18007394 0,18.3233656 C0,23.7222143 2.78122512,28.6302587 8.01647245,32.4748934 L6.13505542,37.8737423 C6.05325467,38.2009452 6.13505542,38.6099489 6.38045762,38.8553512 C6.54405912,39.0189526 6.78946131,39.1007533 6.95306281,39.1007533 C7.11666431,39.1007533 7.19846501,39.1007533 7.36206651,39.0189526 L14.3151294,35.5833215 L15.1331368,35.746923 C17.259956,36.1559267 19.0595723,36.5649304 21.3499929,36.5649304 C22.0043988,36.5649304 23.8040151,36.3195282 23.9676166,36.1559267 C26.4216388,42.3727829 33.2111001,46.7900228 41.2275726,46.7900228 C43.272591,46.7900228 45.3994103,46.2992184 47.1990265,45.808414 L52.5160746,48.6714398 C52.6796761,48.7532406 52.8432775,48.7532406 52.9250783,48.7532406 C53.1704805,48.7532406 53.334082,48.6714398 53.4976835,48.5078384 C53.8248864,48.2624362 53.9066872,47.8534325 53.8248864,47.5262295 L52.5160746,43.0271888 C57.096916,39.5915578 59.5509381,35.3379193 59.5509381,31.0842809 L59.5509381,31.0842809 L59.5509381,31.0842809 M23.0678085,33.4565023 C22.4952033,33.5383031 21.9225981,33.5383031 21.3499929,33.5383031 C19.4685759,33.5383031 17.8325611,33.2111001 16.0329449,32.8020964 L14.9695353,32.5566942 C14.8059338,32.5566942 14.5605316,32.5566942 14.3969301,32.638495 L9.65248723,35.0107164 L10.8794983,31.3296831 C10.9612991,31.0024802 10.8794983,30.5934765 10.5522954,30.3480742 C5.80785248,26.9942439 3.35383031,22.9860077 3.35383031,18.3233656 C3.35383031,9.97969017 11.4521035,3.19022881 21.3499929,3.19022881 C30.102672,3.19022881 37.8737423,8.50727684 39.509757,15.6239412 C30.3480743,15.7057419 22.904207,22.1680003 22.904207,30.1844727 C22.904207,31.3296831 23.0678085,32.4748934 23.3950114,33.538303 C23.23141,33.4565023 23.1496092,33.4565023 23.0678085,33.4565023 L23.0678085,33.4565023 L23.0678085,33.4565023 M50.1438532,41.2275726 C49.898451,41.4729748 49.7348495,41.8001778 49.8166502,42.1273807 L50.6346576,44.8268051 L47.2808273,43.0271888 C47.1172258,42.9453881 47.0354251,42.9453881 46.8718236,42.9453881 C46.7900228,42.9453881 46.7082221,42.9453881 46.6264214,42.9453881 C44.8268051,43.3543918 43.0271889,43.8451962 41.2275726,43.8451962 C32.8838972,43.8451962 26.1762366,38.1191445 26.1762366,31.0842809 C26.1762366,24.0494173 32.965698,18.3233656 41.2275726,18.3233656 C49.4076466,18.3233656 56.2789086,24.131218 56.2789086,31.0842809 C56.3607093,34.6017127 54.1520894,38.2009452 50.1438532,41.2275726 L50.1438532,41.2275726 L50.1438532,41.2275726" id="Shape"></path>
                            <path d="M35.6651223,24.3766203 C34.6835134,24.3766203 33.6201038,25.4400299 33.6201038,26.4216388 C33.6201038,27.4850483 34.6017127,28.4666572 35.6651223,28.4666572 C37.2193363,28.4666572 38.2009452,27.4850483 38.2009452,26.4216388 C38.2009452,25.4400299 37.1375356,24.3766203 35.6651223,24.3766203 L35.6651223,24.3766203" id="Shape"></path>
                            <path d="M46.8718236,24.3766203 C45.8902147,24.3766203 44.8268051,25.4400299 44.8268051,26.4216388 C44.8268051,27.4850483 45.808414,28.4666572 46.8718236,28.4666572 C48.4260376,28.4666572 49.4076465,27.4850483 49.4076465,26.4216388 C49.4076465,25.4400299 48.4260376,24.3766203 46.8718236,24.3766203 L46.8718236,24.3766203" id="Shape"></path>
                        </g>
                        <g id="感叹号" transform="translate(41.000000, 5.000000)">
                            <circle id="Oval-21" stroke="#555555" stroke-width="2.2" cx="6.5" cy="6.5" r="6.5"></circle>
                            <polygon id="1" fill="#555555" points="6.79 10 7.57 10 7.57 2.95 6.99 2.95 5.28 3.54 5.47 4.18 6.79 3.77"></polygon>
                        </g>
                    </g>
                </g>
            </g>
        </g>
    </g>
</svg>