<?xml version="1.0" encoding="UTF-8" standalone="no"?>
<svg width="18px" height="22px" viewBox="0 0 18 22" version="1.1" xmlns="http://www.w3.org/2000/svg" xmlns:xlink="http://www.w3.org/1999/xlink">
    <!-- Generator: Sketch 44.1 (41455) - http://www.bohemiancoding.com/sketch -->
    <title>icon_user center</title>
    <desc>Created with Sketch.</desc>
    <defs></defs>
    <g id="YCH-WORKS" stroke="none" stroke-width="1" fill="none" fill-rule="evenodd">
        <g id="Web_Register" transform="translate(-1812.000000, -32.000000)" fill-rule="nonzero" fill="#D95E2E">
            <g id="My-acc_register">
                <g id="icon_user-center" transform="translate(1812.000000, 32.000000)">
                    <g>
                        <path d="M9.0382774,11.7292769 C5.89952125,11.7292769 3.29665071,9.07064082 3.29665071,5.86463846 C3.29665071,2.6586361 5.89952125,5.32907052e-15 9.0382774,5.32907052e-15 C12.1770336,5.32907052e-15 14.7799041,2.6586361 14.7799041,5.86463846 C14.7799041,9.07064082 12.1770336,11.7292769 9.0382774,11.7292769 L9.0382774,11.7292769 Z M9.0382774,2.34585534 C7.12440207,2.34585534 5.59330139,3.91739563 5.59330139,5.88182097 C5.59330139,7.84624624 7.12440207,9.41778653 9.0382774,9.41778653 C10.9521528,9.41778653 12.4832534,7.84624624 12.4832534,5.88182097 C12.4832534,3.91739563 10.9521528,2.34585534 9.0382774,2.34585534 L9.0382774,2.34585534 Z M15.7799041,21.2690889 L14.784689,14.9352793 L11.9521528,13.9969371 L12.6411479,11.8074721 L16.7751192,13.2149854 L18,20.9563082 L15.7799041,21.2690889 L15.7799041,21.2690889 Z M2.29665071,21.2690889 L0,20.878113 L1.22488014,13.1367902 L5.35885138,11.7292769 L6.04784659,13.9187419 L3.21531098,14.8570841 L2.29665071,21.2690889 L2.29665071,21.2690889 Z"></path>
                    </g>
                </g>
            </g>
        </g>
    </g>
</svg>