<?xml version="1.0" encoding="UTF-8" standalone="no"?>
<svg width="82px" height="66px" viewBox="0 0 82 66" version="1.1" xmlns="http://www.w3.org/2000/svg" xmlns:xlink="http://www.w3.org/1999/xlink">
    <!-- Generator: Sketch 45.1 (43504) - http://www.bohemiancoding.com/sketch -->
    <title>icon_fb</title>
    <desc>Created with Sketch.</desc>
    <defs></defs>
    <g id="YCH-WORKS" stroke="none" stroke-width="1" fill="none" fill-rule="evenodd">
        <g id="Web-ID_My-acc_support-(redesign)_EN" transform="translate(-965.000000, -598.000000)">
            <g id="My-acc_support-(redesign)" transform="translate(0.000000, -2.000000)">
                <g id="Facebook" transform="translate(930.000000, 600.000000)">
                    <g id="icon_fb" transform="translate(34.000000, 2.000000)">
                        <g id="facebook" transform="translate(41.903426, 36.462626) rotate(-15.000000) translate(-41.903426, -36.462626) translate(6.903426, 8.962626)">
                            <path d="M63.8913305,38.8130151 L63.8913305,9.77177158 L5.58765987,9.77177158 L5.58765987,45.3995134 L27.6025511,45.3995134 L37.0134484,38.6003149 L63.8913305,38.8130151 Z" id="Combined-Shape" stroke="#555555" stroke-width="3" transform="translate(34.739495, 27.585643) scale(-1, 1) rotate(-195.000000) translate(-34.739495, -27.585643) "></path>
                            <path d="M23.2283155,13.805298 L23.2283155,16.7579974 L21.5037292,16.7579974 C20.873944,16.7579974 20.4492052,16.8922111 20.2295127,17.1606383 C20.0098201,17.4290655 19.8999739,17.8317063 19.8999739,18.3685608 L19.8999739,20.4824251 L23.1184692,20.4824251 L22.6900688,23.7930275 L19.8999739,23.7930275 L19.8999739,32.2820383 L16.5386784,32.2820383 L16.5386784,23.7930275 L13.7375988,23.7930275 L13.7375988,20.4824251 L16.5386784,20.4824251 L16.5386784,18.0442112 C16.5386784,16.6573372 16.9194788,15.5817643 17.6810795,14.8174923 C18.4426802,14.0532204 19.4569273,13.6710844 20.7238208,13.6710844 C21.8003141,13.6710844 22.6351457,13.7158223 23.2283155,13.805298 L23.2283155,13.805298 Z" id="Shape" fill="#555555" fill-rule="nonzero" transform="translate(18.482957, 22.976561) rotate(-345.000000) translate(-18.482957, -22.976561) "></path>
                        </g>
                        <g id="感叹号" transform="translate(49.000000, 12.000000)">
                            <circle id="Oval-21" stroke="#555555" stroke-width="2.2" cx="6.5" cy="6.5" r="6.5"></circle>
                            <polygon id="1" fill="#555555" points="6.79 10 7.57 10 7.57 2.95 6.99 2.95 5.28 3.54 5.47 4.18 6.79 3.77"></polygon>
                        </g>
                        <path d="M31.16,45.099 C30.287,45.099 29.423,44.604 29.423,43.65 L29.423,43.632 C29.423,42.633 30.233,42.111 31.412,42.111 C32.006,42.111 32.42,42.192 32.834,42.309 L32.834,42.165 C32.834,41.337 32.33,40.905 31.457,40.905 C30.908,40.905 30.476,41.04 30.044,41.238 L29.837,40.671 C30.35,40.437 30.845,40.275 31.529,40.275 C32.186,40.275 32.699,40.455 33.032,40.788 C33.356,41.112 33.518,41.562 33.518,42.156 L33.518,45 L32.834,45 L32.834,44.307 C32.51,44.721 31.979,45.099 31.16,45.099 Z M31.295,44.541 C32.15,44.541 32.843,44.028 32.843,43.29 L32.843,42.858 C32.501,42.759 32.051,42.66 31.484,42.66 C30.62,42.66 30.125,43.038 30.125,43.596 L30.125,43.614 C30.125,44.199 30.665,44.541 31.295,44.541 Z M37.082,45.108 C37.955,45.108 38.513,44.73 38.981,44.208 L38.54,43.794 C38.171,44.19 37.712,44.487 37.118,44.487 C36.146,44.487 35.408,43.686 35.408,42.678 L35.408,42.66 C35.408,41.661 36.128,40.86 37.073,40.86 C37.703,40.86 38.117,41.175 38.486,41.562 L38.945,41.076 C38.513,40.617 37.964,40.248 37.082,40.248 C35.723,40.248 34.697,41.364 34.697,42.678 L34.697,42.696 C34.697,44.001 35.723,45.108 37.082,45.108 Z M40.538,42.957 C40.637,43.938 41.357,44.505 42.176,44.505 C42.815,44.505 43.265,44.244 43.643,43.848 L44.075,44.235 C43.607,44.757 43.04,45.108 42.158,45.108 C40.88,45.108 39.836,44.127 39.836,42.678 C39.836,41.328 40.781,40.248 42.068,40.248 C43.445,40.248 44.237,41.346 44.237,42.714 C44.237,42.777 44.237,42.849 44.228,42.957 L40.538,42.957 Z M40.538,42.399 L43.535,42.399 C43.454,41.553 42.968,40.833 42.05,40.833 C41.249,40.833 40.637,41.499 40.538,42.399 Z M47.927,45.099 C47.063,45.099 46.505,44.631 46.145,44.109 L46.145,45 L45.452,45 L45.452,38.43 L46.145,38.43 L46.145,41.283 C46.523,40.725 47.072,40.248 47.927,40.248 C49.043,40.248 50.15,41.13 50.15,42.66 L50.15,42.678 C50.15,44.199 49.052,45.099 47.927,45.099 Z M47.801,44.478 C48.701,44.478 49.439,43.812 49.439,42.687 L49.439,42.669 C49.439,41.571 48.683,40.869 47.801,40.869 C46.937,40.869 46.118,41.598 46.118,42.66 L46.118,42.678 C46.118,43.758 46.937,44.478 47.801,44.478 Z M53.552,45.108 C52.157,45.108 51.14,44.01 51.14,42.696 L51.14,42.678 C51.14,41.364 52.166,40.248 53.57,40.248 C54.965,40.248 55.991,41.346 55.991,42.66 L55.991,42.678 C55.991,43.992 54.956,45.108 53.552,45.108 Z M53.57,44.487 C54.578,44.487 55.28,43.677 55.28,42.696 L55.28,42.678 C55.28,41.679 54.533,40.86 53.552,40.86 C52.544,40.86 51.851,41.679 51.851,42.66 L51.851,42.678 C51.851,43.677 52.589,44.487 53.57,44.487 Z M59.366,45.108 C57.971,45.108 56.954,44.01 56.954,42.696 L56.954,42.678 C56.954,41.364 57.98,40.248 59.384,40.248 C60.779,40.248 61.805,41.346 61.805,42.66 L61.805,42.678 C61.805,43.992 60.77,45.108 59.366,45.108 Z M59.384,44.487 C60.392,44.487 61.094,43.677 61.094,42.696 L61.094,42.678 C61.094,41.679 60.347,40.86 59.366,40.86 C58.358,40.86 57.665,41.679 57.665,42.66 L57.665,42.678 C57.665,43.677 58.403,44.487 59.384,44.487 Z M63.056,45 L63.749,45 L63.749,43.785 L64.694,42.831 L66.359,45 L67.187,45 L65.171,42.345 L67.124,40.347 L66.26,40.347 L63.749,42.966 L63.749,38.43 L63.056,38.43 L63.056,45 Z" id="acebook" fill="#555555"></path>
                    </g>
                </g>
            </g>
        </g>
    </g>
</svg>