<?xml version="1.0" encoding="UTF-8" standalone="no"?>
<svg width="82px" height="66px" viewBox="0 0 82 66" version="1.1" xmlns="http://www.w3.org/2000/svg" xmlns:xlink="http://www.w3.org/1999/xlink">
    <!-- Generator: Sketch 44.1 (41455) - http://www.bohemiancoding.com/sketch -->
    <title>icon_documents</title>
    <desc>Created with Sketch.</desc>
    <defs></defs>
    <g id="YCH-WORKS" stroke="none" stroke-width="1" fill="none" fill-rule="evenodd">
        <g id="My-acc_support-(redesign)" transform="translate(-961.000000, -275.000000)" fill="#555555">
            <g transform="translate(-10.000000, -8.000000)" id="documents">
                <g transform="translate(962.500000, 283.000000)">
                    <g id="icon_documents" transform="translate(51.500000, 34.000000) rotate(-270.000000) translate(-51.500000, -34.000000) translate(26.000000, 14.000000)">
                        <rect id="Rectangle-29" transform="translate(31.233806, 19.856909) rotate(-360.000000) translate(-31.233806, -19.856909) " x="30.2165537" y="10.4151372" width="2.03450444" height="18.8835441"></rect>
                        <rect id="Rectangle-29" transform="translate(25.366274, 19.856909) rotate(-360.000000) translate(-25.366274, -19.856909) " x="24.3490215" y="13.2768939" width="2.03450444" height="13.1600306"></rect>
                        <path d="M0,39.7138185 L4.34838537e-15,9.18330878 L11.551011,0 L50.7325475,0 L50.7325475,39.7138185 L0,39.7138185 Z M3.66884095,36.4761953 L46.9725731,36.4051743 L46.9725731,3.23745459 L13.2685356,3.23745459 L3.66884095,10.9407541 L3.66884095,36.4761953 Z" id="Combined-Shape"></path>
                        <path d="M1.91244011,0.467219411 L14.0755592,0.467219411 L14.0755592,12.8485338 L1.91244011,12.8485338 L1.91244011,0.467219411 Z M4.40587952,0.467219411 L4.40587952,10.3722709 L14.0755592,10.3722709 L14.0755592,0.467219411 L4.40587952,0.467219411 Z" id="Combined-Shape" transform="translate(7.994000, 6.657877) rotate(-90.000000) translate(-7.994000, -6.657877) "></path>
                    </g>
                </g>
            </g>
        </g>
    </g>
</svg>