<?xml version="1.0" encoding="UTF-8" standalone="no"?>
<svg width="82px" height="66px" viewBox="0 0 82 66" version="1.1" xmlns="http://www.w3.org/2000/svg" xmlns:xlink="http://www.w3.org/1999/xlink">
    <!-- Generator: Sketch 44.1 (41455) - http://www.bohemiancoding.com/sketch -->
    <title>icon_Video tutorials</title>
    <desc>Created with Sketch.</desc>
    <defs></defs>
    <g id="YCH-WORKS" stroke="none" stroke-width="1" fill="none" fill-rule="evenodd">
        <g id="My-acc_support-(redesign)" transform="translate(-671.000000, -276.000000)" fill="#555555">
            <g transform="translate(-10.000000, -8.000000)" id="video-tutorials">
                <g transform="translate(652.000000, 284.000000)">
                    <g id="icon_Video-tutorials" transform="translate(42.000000, 18.000000)">
                        <path d="M48.5333333,3.00093592 L48.5333333,28.7817036 L3.46666667,28.7817036 L3.46666667,3.00093592 L48.5333333,3.00093592 Z M0,0 L0,1.43226487 L0,30.0775623 L0,31.5098271 L2.36363636,31.5098271 L49.6363636,31.5098271 L52,31.5098271 L52,30.0775623 L52,1.43226487 L52,0 L49.6363636,0 L2.36363636,0 L0,0 Z" id="Rectangle-28" fill-rule="nonzero"></path>
                        <rect id="Rectangle-29" x="26" y="30.9787862" width="2.88342699" height="5.52202143"></rect>
                        <rect id="Rectangle-29" transform="translate(27.441713, 36.991640) rotate(-90.000000) translate(-27.441713, -36.991640) " x="26" y="24.9509485" width="2.88342699" height="24.0813836"></rect>
                        <rect id="Rectangle-29" transform="translate(42.608380, 6.663223) rotate(-90.000000) translate(-42.608380, -6.663223) " x="41.1666667" y="4.44212025" width="2.88342699" height="4.44220521"></rect>
                        <polygon id="Triangle-3" points="30.3333333 17.3431651 23.8333333 21.6789563 23.8333333 13.0073738"></polygon>
                    </g>
                </g>
            </g>
        </g>
    </g>
</svg>