<?xml version="1.0" encoding="UTF-8" standalone="no"?>
<svg width="25px" height="25px" viewBox="0 0 25 25" version="1.1" xmlns="http://www.w3.org/2000/svg" xmlns:xlink="http://www.w3.org/1999/xlink">
    <!-- Generator: Sketch 49.3 (51167) - http://www.bohemiancoding.com/sketch -->
    <title>btn_play</title>
    <desc>Created with Sketch.</desc>
    <defs></defs>
    <g id="SWIFT首页&amp;详情制作" stroke="none" stroke-width="1" fill="none" fill-rule="evenodd">
        <g id="SWIFT(PRO)-ProductpageCN@1920*1080_01" transform="translate(-1253.000000, -584.000000)" fill="#FFFFFF">
            <g id="btn_Learn-more" transform="translate(1119.000000, 567.000000)">
                <g id="btn_play" transform="translate(134.000000, 17.000000)">
                    <g transform="translate(1.000000, 1.000000)">
                        <path d="M11.5,23 C17.8512746,23 23,17.8512746 23,11.5 C23,5.14872538 17.8512746,0 11.5,0 C5.14872538,0 0,5.14872538 0,11.5 C0,17.8512746 5.14872538,23 11.5,23 Z M11.5,22.3715474 C5.49581018,22.3715474 0.628452628,17.5041898 0.628452628,11.5 C0.628452628,5.49581018 5.49581018,0.628452628 11.5,0.628452628 C17.5041898,0.628452628 22.3715474,5.49581018 22.3715474,11.5 C22.3715474,17.5041898 17.5041898,22.3715474 11.5,22.3715474 Z" id="Oval-19" stroke="#FFFFFF" fill-rule="nonzero"></path>
                        <polygon id="Triangle-3" points="16.0868009 11.5179499 9.12453672 16.3379789 9.12453672 6.69792088"></polygon>
                    </g>
                </g>
            </g>
        </g>
    </g>
</svg>