<?xml version="1.0" encoding="UTF-8" standalone="no"?>
<svg width="22px" height="28px" viewBox="0 0 22 28" version="1.1" xmlns="http://www.w3.org/2000/svg" xmlns:xlink="http://www.w3.org/1999/xlink">
    <!-- Generator: Sketch 43.2 (39069) - http://www.bohemiancoding.com/sketch -->
    <title>icon_download</title>
    <desc>Created with Sketch.</desc>
    <defs></defs>
    <g id="SWIFT首页&amp;详情制作" stroke="none" stroke-width="1" fill="none" fill-rule="evenodd">
        <g id="产品详情9th" transform="translate(-949.000000, -908.000000)" stroke-width="0.8" stroke="#D95E2E" fill="#D95E2E">
            <g id="SPECIFICATION">
                <g id="icon_download" transform="translate(841.000000, 880.000000)">
                    <g transform="translate(109.000000, 29.000000)" id="Rectangle-26">
                        <rect transform="translate(10.000000, 25.500000) scale(1, -1) translate(-10.000000, -25.500000) " x="0" y="25" width="20" height="1" rx="0.5"></rect>
                        <path d="M9.94861848,0.0184727165 C9.75620689,0.0184727165 9.60022648,0.172783087 9.60022648,0.35958806 L9.60022648,20.3228096 C9.60022648,20.5112024 9.7618341,20.6639249 9.94861848,20.6639249 C10.1410301,20.6639249 10.2970105,20.5096145 10.2970105,20.3228096 L10.2970105,0.35958806 C10.2970105,0.171195258 10.1354029,0.0184727165 9.94861848,0.0184727165 Z"></path>
                        <path d="M0.328229338,10.7610097 C0.193853494,10.8953855 0.195585546,11.1149838 0.32850407,11.2479024 L9.69535062,20.6147489 C9.8298782,20.7492765 10.0517974,20.7454696 10.1822433,20.6150237 C10.3166192,20.4806478 10.3148871,20.2610495 10.1819686,20.1281309 L0.815122045,10.7612844 C0.680594471,10.6267568 0.45867527,10.6305637 0.328229338,10.7610097 Z"></path>
                        <path d="M9.70551978,20.6186309 C9.57114393,20.4842551 9.57287598,20.2646567 9.70579451,20.1317382 L19.0726411,10.7648916 C19.2071686,10.6303641 19.4290878,10.634171 19.5595338,10.7646169 C19.6939096,10.8989927 19.6921776,11.1185911 19.559259,11.2515096 L10.1924125,20.6183562 C10.0578849,20.7528837 9.83596571,20.7490768 9.70551978,20.6186309 Z"></path>
                    </g>
                </g>
            </g>
        </g>
    </g>
</svg>