<svg id="图层_1" data-name="图层 1" xmlns="http://www.w3.org/2000/svg" viewBox="0 0 17.98 17.98"><defs><style>.cls-1{fill:#cf6d46;}</style></defs><title>购物车</title><path class="cls-1" d="M16.32,13.44H5.56a.23.23,0,0,1-.17-.2l-1-7.69L3.76,2A2.25,2.25,0,0,0,1.6,0H.41A.42.42,0,0,0,0,.43.42.42,0,0,0,.41.86H1.6A1.41,1.41,0,0,1,3,2.14l.59,3.55,1,7.67a1.06,1.06,0,0,0,1,1H16.32a.43.43,0,0,0,0-.86Zm0,0" transform="translate(0 0)"/><path class="cls-1" d="M17.68,2.21A.86.86,0,0,0,17,1.9H5.91a.43.43,0,0,0,0,.86H17s0,0,.05,0a.53.53,0,0,1,.09.35L16.05,9.78a.34.34,0,0,1-.34.27l-8.6.66a.42.42,0,0,0-.38.46.42.42,0,0,0,.41.4h0l8.57-.66a1.16,1.16,0,0,0,1.12-1L18,3.26a1.42,1.42,0,0,0-.29-1Zm0,0" transform="translate(0 0)"/><path class="cls-1" d="M15,15.65a1.17,1.17,0,1,0,1.11,1.16A1.14,1.14,0,0,0,15,15.65Zm0,0" transform="translate(0 0)"/><path class="cls-1" d="M6.25,15.65a1.17,1.17,0,1,0,1.11,1.16,1.14,1.14,0,0,0-1.11-1.16Zm0,0" transform="translate(0 0)"/></svg>