<?xml version="1.0" encoding="UTF-8" standalone="no"?>
<svg width="529px" height="22px" viewBox="0 0 529 22" version="1.1" xmlns="http://www.w3.org/2000/svg" xmlns:xlink="http://www.w3.org/1999/xlink">
    <!-- Generator: Sketch 41.2 (35397) - http://www.bohemiancoding.com/sketch -->
    <title>The brand new uArm i</title>
    <desc>Created with Sketch.</desc>
    <defs>
        <linearGradient x1="-19.3072698%" y1="-42.397181%" x2="101.621964%" y2="132.499312%" id="linearGradient-1">
            <stop stop-color="#FFAC8A" offset="0%"></stop>
            <stop stop-color="#FC6B19" offset="100%"></stop>
        </linearGradient>
    </defs>
    <g id="Page-1" stroke="none" stroke-width="1" fill="none" fill-rule="evenodd">
        <g id="SWIFT产品页-Copy" transform="translate(-694.000000, -991.000000)" fill="url(#linearGradient-1)">
            <g id="Group-24" transform="translate(0.000000, 960.000000)">
                <path d="M699.580075,32.8398438 L699.580075,47 L698.544919,47 L698.544919,32.8398438 L694.179685,32.8398438 L694.179685,31.8730469 L703.94531,31.8730469 L703.94531,32.8398438 L699.580075,32.8398438 Z M715.027341,47 L715.027341,40.5253906 C715.027341,39.2428321 714.794596,38.3053415 714.329099,37.7128906 C713.863602,37.1204397 713.139325,36.8242188 712.156247,36.8242188 C711.225253,36.8242188 710.408204,37.1855433 709.705075,37.9082031 C709.001947,38.630863 708.650388,39.6692641 708.650388,41.0234375 L708.650388,47 L707.683591,47 L707.683591,31.0136719 L708.650388,31.0136719 L708.650388,38.1425781 L708.699216,38.1425781 C709.545574,36.6712166 710.782541,35.9355469 712.410153,35.9355469 C713.575524,35.9355469 714.464187,36.3115197 715.076169,37.0634766 C715.688151,37.8154334 715.994138,38.8945242 715.994138,40.3007812 L715.994138,47 L715.027341,47 Z M720.855466,41.6386719 C720.855466,43.1230543 721.197259,44.2835245 721.880857,45.1201172 C722.564454,45.9567099 723.5052,46.375 724.703122,46.375 C725.914066,46.375 727.095695,45.9290409 728.248044,45.0371094 L728.248044,46.0722656 C727.128247,46.8665404 725.881515,47.2636719 724.50781,47.2636719 C723.114574,47.2636719 721.988283,46.7640024 721.128904,45.7646484 C720.269524,44.7652945 719.839841,43.357431 719.839841,41.5410156 C719.839841,39.9654869 720.289055,38.6373752 721.187497,37.5566406 C722.085939,36.4759061 723.251292,35.9355469 724.683591,35.9355469 C726.024744,35.9355469 727.055007,36.4075474 727.774411,37.3515625 C728.493816,38.2955776 728.853513,39.5813721 728.853513,41.2089844 L728.853513,41.6386719 L720.855466,41.6386719 Z M727.837888,40.7597656 C727.792315,39.5097594 727.492839,38.5413446 726.93945,37.8544922 C726.386062,37.1676398 725.621096,36.8242188 724.644529,36.8242188 C723.628898,36.8242188 722.789063,37.162757 722.124997,37.8398438 C721.460931,38.5169305 721.050779,39.490228 720.894529,40.7597656 L727.837888,40.7597656 Z M741.212888,45.0761719 L741.16406,45.0761719 L741.16406,47 L740.197263,47 L740.197263,31.0136719 L741.16406,31.0136719 L741.16406,38.4257812 L741.212888,38.4257812 C741.597005,37.6315064 742.150385,37.0179058 742.873044,36.5849609 C743.595704,36.1520161 744.386712,35.9355469 745.246091,35.9355469 C746.619796,35.9355469 747.692376,36.409175 748.463865,37.3564453 C749.235353,38.3037157 749.621091,39.5878825 749.621091,41.2089844 C749.621091,43.0188893 749.173505,44.4804632 748.278318,45.59375 C747.383131,46.7070368 746.222661,47.2636719 744.796872,47.2636719 C743.182281,47.2636719 741.987632,46.5345125 741.212888,45.0761719 Z M741.16406,41.0625 L741.16406,42.4199219 C741.16406,43.5071669 741.505853,44.4381472 742.189451,45.2128906 C742.873048,45.9876341 743.771476,46.375 744.884763,46.375 C745.985029,46.375 746.880202,45.9029995 747.57031,44.9589844 C748.260418,44.0149692 748.605466,42.7714921 748.605466,41.2285156 C748.605466,39.8808526 748.288087,38.8098998 747.653318,38.015625 C747.018549,37.2213502 746.173831,36.8242188 745.119138,36.8242188 C743.862621,36.8242188 742.889324,37.245764 742.199216,38.0888672 C741.509109,38.9319704 741.16406,39.9231714 741.16406,41.0625 Z M758.769529,37.2148438 C758.444006,36.9804676 758.063151,36.8632812 757.626951,36.8632812 C756.774082,36.8632812 756.059571,37.30273 755.483396,38.1816406 C754.907221,39.0605513 754.619138,40.3105388 754.619138,41.9316406 L754.619138,47 L753.671873,47 L753.671873,36.1992188 L754.619138,36.1992188 L754.619138,38.5917969 L754.667966,38.5917969 C754.908853,37.7714803 755.297846,37.1318382 755.834959,36.6728516 C756.372071,36.2138649 756.992182,35.984375 757.69531,35.984375 C758.092448,35.984375 758.450517,36.0494785 758.769529,36.1796875 L758.769529,37.2148438 Z M768.630857,47 L768.630857,44.8417969 L768.591795,44.8417969 C768.246741,45.5774776 767.745444,46.1650369 767.087888,46.6044922 C766.430333,47.0439475 765.701174,47.2636719 764.900388,47.2636719 C763.871737,47.2636719 763.057943,46.9755888 762.458982,46.3994141 C761.860021,45.8232393 761.560545,45.0957075 761.560545,44.2167969 C761.560545,42.3287666 762.810532,41.1894551 765.310545,40.7988281 L768.630857,40.3007812 C768.630857,37.9830613 767.75847,36.8242188 766.01367,36.8242188 C764.828768,36.8242188 763.67318,37.3027296 762.546873,38.2597656 L762.546873,37.0878906 C762.94401,36.7688786 763.485997,36.4970714 764.172849,36.2724609 C764.859702,36.0478504 765.505854,35.9355469 766.111326,35.9355469 C767.224613,35.9355469 768.083979,36.2805955 768.689451,36.9707031 C769.294923,37.6608107 769.597654,38.6634049 769.597654,39.9785156 L769.597654,47 L768.630857,47 Z M765.662107,41.6191406 C764.529289,41.7819019 763.733398,42.0439435 763.274412,42.4052734 C762.815425,42.7666034 762.585935,43.3574178 762.585935,44.1777344 C762.585935,44.8157584 762.799149,45.3414693 763.225584,45.7548828 C763.652018,46.1682963 764.246088,46.375 765.00781,46.375 C766.042972,46.375 766.905593,45.9908893 767.595701,45.2226562 C768.285808,44.4544232 768.630857,43.4615946 768.630857,42.2441406 L768.630857,41.1894531 L765.662107,41.6191406 Z M781.568357,47 L781.568357,40.7109375 C781.568357,38.1197787 780.634122,36.8242188 778.765623,36.8242188 C777.723951,36.8242188 776.86784,37.2050743 776.197263,37.9667969 C775.526687,38.7285194 775.191404,39.6725204 775.191404,40.7988281 L775.191404,47 L774.224607,47 L774.224607,36.1992188 L775.191404,36.1992188 L775.191404,38.1621094 L775.240232,38.1621094 C776.027997,36.677727 777.258453,35.9355469 778.931638,35.9355469 C780.097009,35.9355469 780.988927,36.3245404 781.60742,37.1025391 C782.225912,37.8805377 782.535154,38.9889251 782.535154,40.4277344 L782.535154,47 L781.568357,47 Z M794.828123,47 L794.828123,45.0371094 L794.78906,45.0371094 C794.437496,45.7207065 793.916668,46.2626933 793.22656,46.6630859 C792.536453,47.0634786 791.758466,47.2636719 790.892576,47.2636719 C789.564444,47.2636719 788.480471,46.7786507 787.640623,45.8085938 C786.800775,44.8385368 786.380857,43.4974044 786.380857,41.7851562 C786.380857,40.0468663 786.839837,38.6373752 787.75781,37.5566406 C788.675784,36.4759061 789.867178,35.9355469 791.332029,35.9355469 C792.946621,35.9355469 794.098953,36.5996027 794.78906,37.9277344 L794.828123,37.9277344 L794.828123,31.0136719 L795.804685,31.0136719 L795.804685,47 L794.828123,47 Z M794.828123,40.4277344 C794.828123,39.4251252 794.510743,38.5738967 793.875975,37.8740234 C793.241206,37.1741501 792.386722,36.8242188 791.312498,36.8242188 C790.17968,36.8242188 789.243817,37.2587847 788.504881,38.1279297 C787.765945,38.9970747 787.396482,40.1900966 787.396482,41.7070312 C787.396482,43.1979241 787.72851,44.3486288 788.392576,45.1591797 C789.056642,45.9697306 789.912753,46.375 790.960935,46.375 C792.19141,46.375 793.143549,45.9941444 793.817381,45.2324219 C794.491212,44.4706993 794.828123,43.539719 794.828123,42.4394531 L794.828123,40.4277344 Z M815.273436,47 L815.273436,40.7109375 C815.273436,38.1197787 814.3392,36.8242188 812.470701,36.8242188 C811.429029,36.8242188 810.572918,37.2050743 809.902342,37.9667969 C809.231766,38.7285194 808.896483,39.6725204 808.896483,40.7988281 L808.896483,47 L807.929686,47 L807.929686,36.1992188 L808.896483,36.1992188 L808.896483,38.1621094 L808.945311,38.1621094 C809.733075,36.677727 810.963532,35.9355469 812.636717,35.9355469 C813.802087,35.9355469 814.694006,36.3245404 815.312498,37.1025391 C815.930991,37.8805377 816.240233,38.9889251 816.240233,40.4277344 L816.240233,47 L815.273436,47 Z M821.101561,41.6386719 C821.101561,43.1230543 821.443354,44.2835245 822.126951,45.1201172 C822.810549,45.9567099 823.751294,46.375 824.949217,46.375 C826.160161,46.375 827.341789,45.9290409 828.494139,45.0371094 L828.494139,46.0722656 C827.374342,46.8665404 826.127609,47.2636719 824.753905,47.2636719 C823.360668,47.2636719 822.234378,46.7640024 821.374998,45.7646484 C820.515619,44.7652945 820.085936,43.357431 820.085936,41.5410156 C820.085936,39.9654869 820.53515,38.6373752 821.433592,37.5566406 C822.332034,36.4759061 823.497387,35.9355469 824.929686,35.9355469 C826.270838,35.9355469 827.301102,36.4075474 828.020506,37.3515625 C828.739911,38.2955776 829.099608,39.5813721 829.099608,41.2089844 L829.099608,41.6386719 L821.101561,41.6386719 Z M828.083983,40.7597656 C828.03841,39.5097594 827.738933,38.5413446 827.185545,37.8544922 C826.632157,37.1676398 825.867191,36.8242188 824.890623,36.8242188 C823.874993,36.8242188 823.035158,37.162757 822.371092,37.8398438 C821.707026,38.5169305 821.296874,39.490228 821.140623,40.7597656 L828.083983,40.7597656 Z M842.310545,47 L841.402342,47 L839.048827,38.8554688 C838.983722,38.6341135 838.928384,38.3313821 838.882811,37.9472656 L838.824217,37.9472656 C838.811196,38.1100269 838.742838,38.4062479 838.619139,38.8359375 L835.98242,47 L835.074217,47 L831.812498,36.1992188 L832.886717,36.1992188 L835.396483,44.8125 C835.461587,45.0403657 835.510415,45.3430971 835.542967,45.7207031 L835.630858,45.7207031 C835.643879,45.5188792 835.708982,45.2161479 835.82617,44.8125 L838.570311,36.1992188 L839.234373,36.1992188 L841.685545,44.8125 C841.737629,45.0208344 841.786457,45.3235657 841.83203,45.7207031 L841.91992,45.7207031 C841.91992,45.5188792 841.978513,45.2161479 842.095702,44.8125 L844.654295,36.1992188 L845.660155,36.1992188 L842.310545,47 Z M863.566405,47 L863.566405,45.0371094 L863.527342,45.0371094 C862.77213,46.5214918 861.610033,47.2636719 860.041014,47.2636719 C857.488918,47.2636719 856.212889,45.655615 856.212889,42.4394531 L856.212889,36.1992188 L857.199217,36.1992188 L857.199217,42.2050781 C857.199217,43.6634187 857.4401,44.7229785 857.921874,45.3837891 C858.403647,46.0445997 859.162103,46.375 860.197264,46.375 C861.199873,46.375 862.01204,46.0055375 862.633788,45.2666016 C863.255536,44.5276656 863.566405,43.5429749 863.566405,42.3125 L863.566405,36.1992188 L864.542967,36.1992188 L864.542967,47 L863.566405,47 Z M879.433593,47 L877.705077,42.2929688 L871.152343,42.2929688 L869.414061,47 L868.271483,47 L873.974608,31.8730469 L874.970702,31.8730469 L880.605468,47 L879.433593,47 Z M874.794921,34.34375 C874.716795,34.1354156 874.654947,33.9270844 874.609374,33.71875 L874.453124,33.1914062 L874.404296,33.1914062 C874.287108,33.6601586 874.173176,34.037759 874.062499,34.3242188 L871.513671,41.3359375 L877.353514,41.3359375 L874.794921,34.34375 Z M889.43164,37.2148438 C889.106117,36.9804676 888.725262,36.8632812 888.289061,36.8632812 C887.436193,36.8632812 886.721681,37.30273 886.145507,38.1816406 C885.569332,39.0605513 885.281249,40.3105388 885.281249,41.9316406 L885.281249,47 L884.333983,47 L884.333983,36.1992188 L885.281249,36.1992188 L885.281249,38.5917969 L885.330077,38.5917969 C885.570964,37.7714803 885.959957,37.1318382 886.497069,36.6728516 C887.034181,36.2138649 887.654292,35.984375 888.357421,35.984375 C888.754558,35.984375 889.112628,36.0494785 889.43164,36.1796875 L889.43164,37.2148438 Z M906.382812,47 L906.382812,40.5058594 C906.382812,39.1451755 906.169598,38.191409 905.743163,37.6445312 C905.316729,37.0976535 904.644535,36.8242188 903.726562,36.8242188 C902.873693,36.8242188 902.138023,37.1887984 901.51953,37.9179688 C900.901038,38.6471391 900.591796,39.5650986 900.591796,40.671875 L900.591796,47 L899.624999,47 L899.624999,40.4277344 C899.624999,38.0253786 898.710295,36.8242188 896.880858,36.8242188 C896.001948,36.8242188 895.269533,37.1920536 894.683593,37.9277344 C894.097652,38.6634151 893.804687,39.6139265 893.804687,40.7792969 L893.804687,47 L892.83789,47 L892.83789,36.1992188 L893.804687,36.1992188 L893.804687,37.9960938 L893.853515,37.9960938 C894.602216,36.622389 895.702466,35.9355469 897.154296,35.9355469 C897.94206,35.9355469 898.615882,36.1617816 899.17578,36.6142578 C899.735679,37.066734 900.113279,37.6640588 900.308593,38.40625 C900.647136,37.6249961 901.13053,37.0179058 901.758788,36.5849609 C902.387046,36.1520161 903.069006,35.9355469 903.804687,35.9355469 C906.16798,35.9355469 907.349608,37.3971208 907.349608,40.3203125 L907.349608,47 L906.382812,47 Z M919.738281,33.4746094 C919.523436,33.4746094 919.336263,33.3981127 919.176757,33.2451172 C919.017251,33.0921216 918.937499,32.8951835 918.937499,32.6542969 C918.937499,32.4264312 919.018879,32.2392585 919.18164,32.0927734 C919.344401,31.9462883 919.529946,31.8730469 919.738281,31.8730469 C919.953125,31.8730469 920.143553,31.9430332 920.30957,32.0830078 C920.475586,32.2229825 920.558593,32.4134103 920.558593,32.6542969 C920.558593,32.8821626 920.477214,33.0758456 920.314452,33.2353516 C920.151691,33.3948576 919.959636,33.4746094 919.738281,33.4746094 Z M919.259765,47 L919.259765,36.1992188 L920.226562,36.1992188 L920.226562,47 L919.259765,47 Z M924.511718,46.5214844 L924.511718,45.359375 C924.876303,45.6718766 925.319007,45.9192699 925.839843,46.1015625 C926.360679,46.2838551 926.809893,46.375 927.187499,46.375 C928.880216,46.375 929.726562,45.6849027 929.726562,44.3046875 C929.726562,43.8229143 929.541017,43.4127621 929.169921,43.0742188 C928.798826,42.7356754 928.193363,42.3873716 927.353515,42.0292969 C926.324864,41.5800759 925.600587,41.1145857 925.180663,40.6328125 C924.760739,40.1510393 924.550781,39.5651076 924.550781,38.875 C924.550781,37.9960894 924.886064,37.286461 925.55664,36.7460938 C926.227216,36.2057265 927.057286,35.9355469 928.046874,35.9355469 C928.971358,35.9355469 929.765621,36.1243471 930.429687,36.5019531 L930.429687,37.6054688 C929.628902,37.0846328 928.798832,36.8242188 927.939453,36.8242188 C927.229814,36.8242188 926.656903,37.0081362 926.220703,37.3759766 C925.784502,37.7438169 925.566406,38.2239554 925.566406,38.8164062 C925.566406,39.3307317 925.703123,39.7473942 925.976562,40.0664062 C926.250001,40.3854183 926.855463,40.7532531 927.792968,41.1699219 C928.919276,41.6777369 929.69238,42.1464822 930.112304,42.5761719 C930.532228,43.0058615 930.742187,43.5820276 930.742187,44.3046875 C930.742187,45.1575563 930.421552,45.8639295 929.780273,46.4238281 C929.138994,46.9837268 928.251958,47.2636719 927.11914,47.2636719 C926.077468,47.2636719 925.208336,47.0162785 924.511718,46.5214844 Z M948.580078,47 L948.580078,44.8417969 L948.541015,44.8417969 C948.195961,45.5774776 947.694664,46.1650369 947.037109,46.6044922 C946.379554,47.0439475 945.650394,47.2636719 944.849609,47.2636719 C943.820958,47.2636719 943.007164,46.9755888 942.408203,46.3994141 C941.809241,45.8232393 941.509765,45.0957075 941.509765,44.2167969 C941.509765,42.3287666 942.759753,41.1894551 945.259765,40.7988281 L948.580078,40.3007812 C948.580078,37.9830613 947.707691,36.8242188 945.96289,36.8242188 C944.777989,36.8242188 943.622401,37.3027296 942.496093,38.2597656 L942.496093,37.0878906 C942.893231,36.7688786 943.435218,36.4970714 944.12207,36.2724609 C944.808922,36.0478504 945.455075,35.9355469 946.060547,35.9355469 C947.173833,35.9355469 948.0332,36.2805955 948.638672,36.9707031 C949.244143,37.6608107 949.546875,38.6634049 949.546875,39.9785156 L949.546875,47 L948.580078,47 Z M945.611328,41.6191406 C944.47851,41.7819019 943.682619,42.0439435 943.223632,42.4052734 C942.764646,42.7666034 942.535156,43.3574178 942.535156,44.1777344 C942.535156,44.8157584 942.74837,45.3414693 943.174804,45.7548828 C943.601239,46.1682963 944.195308,46.375 944.957031,46.375 C945.992192,46.375 946.854814,45.9908893 947.544922,45.2226562 C948.235029,44.4544232 948.580078,43.4615946 948.580078,42.2441406 L948.580078,41.1894531 L945.611328,41.6191406 Z M955.189453,45.0761719 L955.140625,45.0761719 L955.140625,47 L954.173828,47 L954.173828,31.0136719 L955.140625,31.0136719 L955.140625,38.4257812 L955.189453,38.4257812 C955.573569,37.6315064 956.126949,37.0179058 956.849609,36.5849609 C957.572269,36.1520161 958.363277,35.9355469 959.222656,35.9355469 C960.596361,35.9355469 961.668941,36.409175 962.440429,37.3564453 C963.211918,38.3037157 963.597656,39.5878825 963.597656,41.2089844 C963.597656,43.0188893 963.150069,44.4804632 962.254883,45.59375 C961.359696,46.7070368 960.199226,47.2636719 958.773437,47.2636719 C957.158846,47.2636719 955.964196,46.5345125 955.189453,45.0761719 Z M955.140625,41.0625 L955.140625,42.4199219 C955.140625,43.5071669 955.482418,44.4381472 956.166015,45.2128906 C956.849613,45.9876341 957.748041,46.375 958.861328,46.375 C959.961594,46.375 960.856767,45.9029995 961.546875,44.9589844 C962.236982,44.0149692 962.582031,42.7714921 962.582031,41.2285156 C962.582031,39.8808526 962.264651,38.8098998 961.629883,38.015625 C960.995114,37.2213502 960.150396,36.8242188 959.095703,36.8242188 C957.839186,36.8242188 956.865889,37.245764 956.175781,38.0888672 C955.485673,38.9319704 955.140625,39.9231714 955.140625,41.0625 Z M971.984375,47.2636719 C970.408846,47.2636719 969.162114,46.7444713 968.244141,45.7060547 C967.326167,44.667638 966.867187,43.3216229 966.867187,41.6679688 C966.867187,39.8710848 967.347326,38.4664764 968.307617,37.4541016 C969.267908,36.4417267 970.532544,35.9355469 972.101562,35.9355469 C973.638028,35.9355469 974.853837,36.4384715 975.749023,37.4443359 C976.64421,38.4502003 977.091797,39.841788 977.091797,41.6191406 C977.091797,43.2988365 976.636072,44.6595 975.724609,45.7011719 C974.813146,46.7428437 973.566414,47.2636719 971.984375,47.2636719 Z M972.0625,36.8242188 C970.786452,36.8242188 969.770837,37.2522744 969.015625,38.1083984 C968.260413,38.9645225 967.882812,40.1575444 967.882812,41.6875 C967.882812,43.1002675 968.252275,44.2346962 968.991211,45.0908203 C969.730147,45.9469444 970.737624,46.375 972.013672,46.375 C973.315762,46.375 974.318356,45.9534547 975.021484,45.1103516 C975.724613,44.2672484 976.076172,43.0970127 976.076172,41.5996094 C976.076172,40.0631434 975.72624,38.8831421 975.026367,38.0595703 C974.326494,37.2359985 973.338548,36.8242188 972.0625,36.8242188 Z M988.271484,47 L988.271484,45.0371094 L988.232422,45.0371094 C987.47721,46.5214918 986.315112,47.2636719 984.746094,47.2636719 C982.193998,47.2636719 980.917969,45.655615 980.917969,42.4394531 L980.917969,36.1992188 L981.904297,36.1992188 L981.904297,42.2050781 C981.904297,43.6634187 982.14518,44.7229785 982.626953,45.3837891 C983.108726,46.0445997 983.867182,46.375 984.902344,46.375 C985.904953,46.375 986.717119,46.0055375 987.338867,45.2666016 C987.960615,44.5276656 988.271484,43.5429749 988.271484,42.3125 L988.271484,36.1992188 L989.248047,36.1992188 L989.248047,47 L988.271484,47 Z M998.357422,46.8535156 C997.849607,47.0944022 997.374351,47.2148438 996.931641,47.2148438 C995.336581,47.2148438 994.539063,46.2578221 994.539063,44.34375 L994.539063,37.0878906 L992.595703,37.0878906 L992.595703,36.1992188 L994.539063,36.1992188 L994.539063,33.3964844 C994.688803,33.3378903 994.848307,33.2825523 995.017578,33.2304688 C995.18685,33.1783852 995.349609,33.1230472 995.505859,33.0644531 L995.505859,36.1992188 L998.357422,36.1992188 L998.357422,37.0878906 L995.505859,37.0878906 L995.505859,44.2167969 C995.505859,44.9589881 995.623046,45.4977197 995.857422,45.8330078 C996.091798,46.1682959 996.492185,46.3359375 997.058594,46.3359375 C997.455731,46.3359375 997.88867,46.2057305 998.357422,45.9453125 L998.357422,46.8535156 Z M1013.44141,46.8535156 C1012.93359,47.0944022 1012.45834,47.2148438 1012.01563,47.2148438 C1010.42057,47.2148438 1009.62305,46.2578221 1009.62305,44.34375 L1009.62305,37.0878906 L1007.67969,37.0878906 L1007.67969,36.1992188 L1009.62305,36.1992188 L1009.62305,33.3964844 C1009.77279,33.3378903 1009.93229,33.2825523 1010.10156,33.2304688 C1010.27083,33.1783852 1010.43359,33.1230472 1010.58984,33.0644531 L1010.58984,36.1992188 L1013.44141,36.1992188 L1013.44141,37.0878906 L1010.58984,37.0878906 L1010.58984,44.2167969 C1010.58984,44.9589881 1010.70703,45.4977197 1010.94141,45.8330078 C1011.17578,46.1682959 1011.57617,46.3359375 1012.14258,46.3359375 C1012.53972,46.3359375 1012.97265,46.2057305 1013.44141,45.9453125 L1013.44141,46.8535156 Z M1021.29102,47.2636719 C1019.71549,47.2636719 1018.46876,46.7444713 1017.55078,45.7060547 C1016.63281,44.667638 1016.17383,43.3216229 1016.17383,41.6679688 C1016.17383,39.8710848 1016.65397,38.4664764 1017.61426,37.4541016 C1018.57455,36.4417267 1019.83919,35.9355469 1021.4082,35.9355469 C1022.94467,35.9355469 1024.16048,36.4384715 1025.05566,37.4443359 C1025.95085,38.4502003 1026.39844,39.841788 1026.39844,41.6191406 C1026.39844,43.2988365 1025.94271,44.6595 1025.03125,45.7011719 C1024.11979,46.7428437 1022.87306,47.2636719 1021.29102,47.2636719 Z M1021.36914,36.8242188 C1020.09309,36.8242188 1019.07748,37.2522744 1018.32227,38.1083984 C1017.56705,38.9645225 1017.18945,40.1575444 1017.18945,41.6875 C1017.18945,43.1002675 1017.55892,44.2346962 1018.29785,45.0908203 C1019.03679,45.9469444 1020.04426,46.375 1021.32031,46.375 C1022.6224,46.375 1023.625,45.9534547 1024.32813,45.1103516 C1025.03125,44.2672484 1025.38281,43.0970127 1025.38281,41.5996094 C1025.38281,40.0631434 1025.03288,38.8831421 1024.33301,38.0595703 C1023.63313,37.2359985 1022.64519,36.8242188 1021.36914,36.8242188 Z M1037.18555,46.5214844 L1037.18555,45.359375 C1037.55013,45.6718766 1037.99284,45.9192699 1038.51367,46.1015625 C1039.03451,46.2838551 1039.48372,46.375 1039.86133,46.375 C1041.55405,46.375 1042.40039,45.6849027 1042.40039,44.3046875 C1042.40039,43.8229143 1042.21485,43.4127621 1041.84375,43.0742188 C1041.47266,42.7356754 1040.86719,42.3873716 1040.02734,42.0292969 C1038.99869,41.5800759 1038.27442,41.1145857 1037.85449,40.6328125 C1037.43457,40.1510393 1037.22461,39.5651076 1037.22461,38.875 C1037.22461,37.9960894 1037.55989,37.286461 1038.23047,36.7460938 C1038.90105,36.2057265 1039.73112,35.9355469 1040.7207,35.9355469 C1041.64519,35.9355469 1042.43945,36.1243471 1043.10352,36.5019531 L1043.10352,37.6054688 C1042.30273,37.0846328 1041.47266,36.8242188 1040.61328,36.8242188 C1039.90364,36.8242188 1039.33073,37.0081362 1038.89453,37.3759766 C1038.45833,37.7438169 1038.24024,38.2239554 1038.24024,38.8164062 C1038.24024,39.3307317 1038.37695,39.7473942 1038.65039,40.0664062 C1038.92383,40.3854183 1039.52929,40.7532531 1040.4668,41.1699219 C1041.59311,41.6777369 1042.36621,42.1464822 1042.78613,42.5761719 C1043.20606,43.0058615 1043.41602,43.5820276 1043.41602,44.3046875 C1043.41602,45.1575563 1043.09538,45.8639295 1042.4541,46.4238281 C1041.81282,46.9837268 1040.92579,47.2636719 1039.79297,47.2636719 C1038.7513,47.2636719 1037.88217,47.0162785 1037.18555,46.5214844 Z M1054.63477,47 L1054.63477,45.0371094 L1054.5957,45.0371094 C1053.84049,46.5214918 1052.67839,47.2636719 1051.10938,47.2636719 C1048.55728,47.2636719 1047.28125,45.655615 1047.28125,42.4394531 L1047.28125,36.1992188 L1048.26758,36.1992188 L1048.26758,42.2050781 C1048.26758,43.6634187 1048.50846,44.7229785 1048.99024,45.3837891 C1049.47201,46.0445997 1050.23046,46.375 1051.26563,46.375 C1052.26824,46.375 1053.0804,46.0055375 1053.70215,45.2666016 C1054.3239,44.5276656 1054.63477,43.5429749 1054.63477,42.3125 L1054.63477,36.1992188 L1055.61133,36.1992188 L1055.61133,47 L1054.63477,47 Z M1065.54102,37.2148438 C1065.21549,36.9804676 1064.83464,36.8632812 1064.39844,36.8632812 C1063.54557,36.8632812 1062.83106,37.30273 1062.25488,38.1816406 C1061.67871,39.0605513 1061.39063,40.3105388 1061.39063,41.9316406 L1061.39063,47 L1060.44336,47 L1060.44336,36.1992188 L1061.39063,36.1992188 L1061.39063,38.5917969 L1061.43945,38.5917969 C1061.68034,37.7714803 1062.06933,37.1318382 1062.60645,36.6728516 C1063.14356,36.2138649 1063.76367,35.984375 1064.4668,35.984375 C1064.86394,35.984375 1065.222,36.0494785 1065.54102,36.1796875 L1065.54102,37.2148438 Z M1069.96289,45.0761719 L1069.91406,45.0761719 L1069.91406,51.9707031 L1068.94727,51.9707031 L1068.94727,36.1992188 L1069.91406,36.1992188 L1069.91406,38.4257812 L1069.96289,38.4257812 C1070.34701,37.6315064 1070.90039,37.0179058 1071.62305,36.5849609 C1072.34571,36.1520161 1073.13672,35.9355469 1073.99609,35.9355469 C1075.3698,35.9355469 1076.44238,36.409175 1077.21387,37.3564453 C1077.98536,38.3037157 1078.37109,39.5878825 1078.37109,41.2089844 C1078.37109,43.0188893 1077.92839,44.4804632 1077.04297,45.59375 C1076.15755,46.7070368 1074.9922,47.2636719 1073.54688,47.2636719 C1071.93228,47.2636719 1070.73764,46.5345125 1069.96289,45.0761719 Z M1069.91406,41.0625 L1069.91406,42.4199219 C1069.91406,43.5071669 1070.25586,44.4381472 1070.93945,45.2128906 C1071.62305,45.9876341 1072.52148,46.375 1073.63477,46.375 C1074.73503,46.375 1075.63021,45.9029995 1076.32031,44.9589844 C1077.01042,44.0149692 1077.35547,42.7714921 1077.35547,41.2285156 C1077.35547,39.8808526 1077.03809,38.8098998 1076.40332,38.015625 C1075.76855,37.2213502 1074.92383,36.8242188 1073.86914,36.8242188 C1072.61262,36.8242188 1071.63933,37.245764 1070.94922,38.0888672 C1070.25911,38.9319704 1069.91406,39.9231714 1069.91406,41.0625 Z M1087.51953,37.2148438 C1087.19401,36.9804676 1086.81315,36.8632812 1086.37695,36.8632812 C1085.52409,36.8632812 1084.80957,37.30273 1084.2334,38.1816406 C1083.65722,39.0605513 1083.36914,40.3105388 1083.36914,41.9316406 L1083.36914,47 L1082.42188,47 L1082.42188,36.1992188 L1083.36914,36.1992188 L1083.36914,38.5917969 L1083.41797,38.5917969 C1083.65886,37.7714803 1084.04785,37.1318382 1084.58496,36.6728516 C1085.12207,36.2138649 1085.74219,35.984375 1086.44531,35.984375 C1086.84245,35.984375 1087.20052,36.0494785 1087.51953,36.1796875 L1087.51953,37.2148438 Z M1091.4043,33.4746094 C1091.18945,33.4746094 1091.00228,33.3981127 1090.84277,33.2451172 C1090.68327,33.0921216 1090.60352,32.8951835 1090.60352,32.6542969 C1090.60352,32.4264312 1090.6849,32.2392585 1090.84766,32.0927734 C1091.01042,31.9462883 1091.19596,31.8730469 1091.4043,31.8730469 C1091.61914,31.8730469 1091.80957,31.9430332 1091.97559,32.0830078 C1092.1416,32.2229825 1092.22461,32.4134103 1092.22461,32.6542969 C1092.22461,32.8821626 1092.14323,33.0758456 1091.98047,33.2353516 C1091.81771,33.3948576 1091.62565,33.4746094 1091.4043,33.4746094 Z M1090.92578,47 L1090.92578,36.1992188 L1091.89258,36.1992188 L1091.89258,47 L1090.92578,47 Z M1096.17774,46.5214844 L1096.17774,45.359375 C1096.54232,45.6718766 1096.98502,45.9192699 1097.50586,46.1015625 C1098.0267,46.2838551 1098.47591,46.375 1098.85352,46.375 C1100.54623,46.375 1101.39258,45.6849027 1101.39258,44.3046875 C1101.39258,43.8229143 1101.20703,43.4127621 1100.83594,43.0742188 C1100.46484,42.7356754 1099.85938,42.3873716 1099.01953,42.0292969 C1097.99088,41.5800759 1097.26661,41.1145857 1096.84668,40.6328125 C1096.42676,40.1510393 1096.2168,39.5651076 1096.2168,38.875 C1096.2168,37.9960894 1096.55208,37.286461 1097.22266,36.7460938 C1097.89323,36.2057265 1098.7233,35.9355469 1099.71289,35.9355469 C1100.63738,35.9355469 1101.43164,36.1243471 1102.0957,36.5019531 L1102.0957,37.6054688 C1101.29492,37.0846328 1100.46485,36.8242188 1099.60547,36.8242188 C1098.89583,36.8242188 1098.32292,37.0081362 1097.88672,37.3759766 C1097.45052,37.7438169 1097.23242,38.2239554 1097.23242,38.8164062 C1097.23242,39.3307317 1097.36914,39.7473942 1097.64258,40.0664062 C1097.91602,40.3854183 1098.52148,40.7532531 1099.45899,41.1699219 C1100.58529,41.6777369 1101.3584,42.1464822 1101.77832,42.5761719 C1102.19825,43.0058615 1102.4082,43.5820276 1102.4082,44.3046875 C1102.4082,45.1575563 1102.08757,45.8639295 1101.44629,46.4238281 C1100.80501,46.9837268 1099.91798,47.2636719 1098.78516,47.2636719 C1097.74349,47.2636719 1096.87435,47.0162785 1096.17774,46.5214844 Z M1106.73242,41.6386719 C1106.73242,43.1230543 1107.07422,44.2835245 1107.75781,45.1201172 C1108.44141,45.9567099 1109.38216,46.375 1110.58008,46.375 C1111.79102,46.375 1112.97265,45.9290409 1114.125,45.0371094 L1114.125,46.0722656 C1113.0052,46.8665404 1111.75847,47.2636719 1110.38477,47.2636719 C1108.99153,47.2636719 1107.86524,46.7640024 1107.00586,45.7646484 C1106.14648,44.7652945 1105.7168,43.357431 1105.7168,41.5410156 C1105.7168,39.9654869 1106.16601,38.6373752 1107.06445,37.5566406 C1107.9629,36.4759061 1109.12825,35.9355469 1110.56055,35.9355469 C1111.9017,35.9355469 1112.93196,36.4075474 1113.65137,37.3515625 C1114.37077,38.2955776 1114.73047,39.5813721 1114.73047,41.2089844 L1114.73047,41.6386719 L1106.73242,41.6386719 Z M1113.71485,40.7597656 C1113.66927,39.5097594 1113.3698,38.5413446 1112.81641,37.8544922 C1112.26302,37.1676398 1111.49805,36.8242188 1110.52149,36.8242188 C1109.50586,36.8242188 1108.66602,37.162757 1108.00195,37.8398438 C1107.33789,38.5169305 1106.92774,39.490228 1106.77149,40.7597656 L1113.71485,40.7597656 Z M1128.71094,49.2070312 C1128.32031,50.1770882 1127.88575,50.896482 1127.40723,51.3652344 C1126.92871,51.8339867 1126.31185,52.0683594 1125.55664,52.0683594 C1125.24414,52.0683594 1124.9642,52.0195317 1124.7168,51.921875 L1124.7168,50.9550781 C1124.97071,51.0527349 1125.26693,51.1015625 1125.60547,51.1015625 C1126.46485,51.1015625 1127.14518,50.5058653 1127.64649,49.3144531 L1128.65235,46.9121094 L1124.56055,36.1992188 L1125.64453,36.1992188 L1128.90625,44.9980469 C1128.97136,45.1868499 1129.02018,45.3300776 1129.05274,45.4277344 C1129.07878,45.5644538 1129.10807,45.6848953 1129.14063,45.7890625 L1129.18945,45.7890625 L1129.44336,45.0566406 L1132.91992,36.1992188 L1133.97461,36.1992188 L1128.71094,49.2070312 Z M1141.57031,47.2636719 C1139.99479,47.2636719 1138.74805,46.7444713 1137.83008,45.7060547 C1136.91211,44.667638 1136.45313,43.3216229 1136.45313,41.6679688 C1136.45313,39.8710848 1136.93327,38.4664764 1137.89356,37.4541016 C1138.85385,36.4417267 1140.11848,35.9355469 1141.6875,35.9355469 C1143.22397,35.9355469 1144.43978,36.4384715 1145.33496,37.4443359 C1146.23015,38.4502003 1146.67774,39.841788 1146.67774,41.6191406 C1146.67774,43.2988365 1146.22201,44.6595 1145.31055,45.7011719 C1144.39909,46.7428437 1143.15235,47.2636719 1141.57031,47.2636719 Z M1141.64844,36.8242188 C1140.37239,36.8242188 1139.35678,37.2522744 1138.60156,38.1083984 C1137.84635,38.9645225 1137.46875,40.1575444 1137.46875,41.6875 C1137.46875,43.1002675 1137.83821,44.2346962 1138.57715,45.0908203 C1139.31609,45.9469444 1140.32356,46.375 1141.59961,46.375 C1142.9017,46.375 1143.9043,45.9534547 1144.60742,45.1103516 C1145.31055,44.2672484 1145.66211,43.0970127 1145.66211,41.5996094 C1145.66211,40.0631434 1145.31218,38.8831421 1144.61231,38.0595703 C1143.91243,37.2359985 1142.92449,36.8242188 1141.64844,36.8242188 Z M1157.85742,47 L1157.85742,45.0371094 L1157.81836,45.0371094 C1157.06315,46.5214918 1155.90105,47.2636719 1154.33203,47.2636719 C1151.77994,47.2636719 1150.50391,45.655615 1150.50391,42.4394531 L1150.50391,36.1992188 L1151.49024,36.1992188 L1151.49024,42.2050781 C1151.49024,43.6634187 1151.73112,44.7229785 1152.21289,45.3837891 C1152.69467,46.0445997 1153.45312,46.375 1154.48828,46.375 C1155.49089,46.375 1156.30306,46.0055375 1156.92481,45.2666016 C1157.54655,44.5276656 1157.85742,43.5429749 1157.85742,42.3125 L1157.85742,36.1992188 L1158.83399,36.1992188 L1158.83399,47 L1157.85742,47 Z M1170.40235,46.5214844 L1170.40235,45.359375 C1170.76693,45.6718766 1171.20964,45.9192699 1171.73047,46.1015625 C1172.25131,46.2838551 1172.70052,46.375 1173.07813,46.375 C1174.77084,46.375 1175.61719,45.6849027 1175.61719,44.3046875 C1175.61719,43.8229143 1175.43164,43.4127621 1175.06055,43.0742188 C1174.68945,42.7356754 1174.08399,42.3873716 1173.24414,42.0292969 C1172.21549,41.5800759 1171.49122,41.1145857 1171.07129,40.6328125 C1170.65137,40.1510393 1170.44141,39.5651076 1170.44141,38.875 C1170.44141,37.9960894 1170.77669,37.286461 1171.44727,36.7460938 C1172.11784,36.2057265 1172.94791,35.9355469 1173.9375,35.9355469 C1174.86199,35.9355469 1175.65625,36.1243471 1176.32031,36.5019531 L1176.32031,37.6054688 C1175.51953,37.0846328 1174.68946,36.8242188 1173.83008,36.8242188 C1173.12044,36.8242188 1172.54753,37.0081362 1172.11133,37.3759766 C1171.67513,37.7438169 1171.45703,38.2239554 1171.45703,38.8164062 C1171.45703,39.3307317 1171.59375,39.7473942 1171.86719,40.0664062 C1172.14063,40.3854183 1172.74609,40.7532531 1173.6836,41.1699219 C1174.8099,41.6777369 1175.58301,42.1464822 1176.00293,42.5761719 C1176.42286,43.0058615 1176.63281,43.5820276 1176.63281,44.3046875 C1176.63281,45.1575563 1176.31218,45.8639295 1175.6709,46.4238281 C1175.02962,46.9837268 1174.14259,47.2636719 1173.00977,47.2636719 C1171.9681,47.2636719 1171.09896,47.0162785 1170.40235,46.5214844 Z M1185.0586,47.2636719 C1183.48307,47.2636719 1182.23634,46.7444713 1181.31836,45.7060547 C1180.40039,44.667638 1179.94141,43.3216229 1179.94141,41.6679688 C1179.94141,39.8710848 1180.42155,38.4664764 1181.38184,37.4541016 C1182.34213,36.4417267 1183.60677,35.9355469 1185.17578,35.9355469 C1186.71225,35.9355469 1187.92806,36.4384715 1188.82324,37.4443359 C1189.71843,38.4502003 1190.16602,39.841788 1190.16602,41.6191406 C1190.16602,43.2988365 1189.71029,44.6595 1188.79883,45.7011719 C1187.88737,46.7428437 1186.64064,47.2636719 1185.0586,47.2636719 Z M1185.13672,36.8242188 C1183.86067,36.8242188 1182.84506,37.2522744 1182.08985,38.1083984 C1181.33463,38.9645225 1180.95703,40.1575444 1180.95703,41.6875 C1180.95703,43.1002675 1181.3265,44.2346962 1182.06543,45.0908203 C1182.80437,45.9469444 1183.81184,46.375 1185.08789,46.375 C1186.38998,46.375 1187.39258,45.9534547 1188.09571,45.1103516 C1188.79883,44.2672484 1189.15039,43.0970127 1189.15039,41.5996094 C1189.15039,40.0631434 1188.80046,38.8831421 1188.10059,38.0595703 C1187.40072,37.2359985 1186.41277,36.8242188 1185.13672,36.8242188 Z M1198.55274,47.2636719 C1196.97721,47.2636719 1195.73048,46.7444713 1194.8125,45.7060547 C1193.89453,44.667638 1193.43555,43.3216229 1193.43555,41.6679688 C1193.43555,39.8710848 1193.91569,38.4664764 1194.87598,37.4541016 C1195.83627,36.4417267 1197.10091,35.9355469 1198.66992,35.9355469 C1200.20639,35.9355469 1201.4222,36.4384715 1202.31739,37.4443359 C1203.21257,38.4502003 1203.66016,39.841788 1203.66016,41.6191406 C1203.66016,43.2988365 1203.20443,44.6595 1202.29297,45.7011719 C1201.38151,46.7428437 1200.13478,47.2636719 1198.55274,47.2636719 Z M1198.63086,36.8242188 C1197.35481,36.8242188 1196.3392,37.2522744 1195.58399,38.1083984 C1194.82877,38.9645225 1194.45117,40.1575444 1194.45117,41.6875 C1194.45117,43.1002675 1194.82064,44.2346962 1195.55957,45.0908203 C1196.29851,45.9469444 1197.30599,46.375 1198.58203,46.375 C1199.88412,46.375 1200.88672,45.9534547 1201.58985,45.1103516 C1202.29297,44.2672484 1202.64453,43.0970127 1202.64453,41.5996094 C1202.64453,40.0631434 1202.2946,38.8831421 1201.59473,38.0595703 C1200.89486,37.2359985 1199.90691,36.8242188 1198.63086,36.8242188 Z M1215.05469,47 L1215.05469,40.7109375 C1215.05469,38.1197787 1214.12045,36.8242188 1212.25196,36.8242188 C1211.21028,36.8242188 1210.35417,37.2050743 1209.6836,37.9667969 C1209.01302,38.7285194 1208.67774,39.6725204 1208.67774,40.7988281 L1208.67774,47 L1207.71094,47 L1207.71094,36.1992188 L1208.67774,36.1992188 L1208.67774,38.1621094 L1208.72657,38.1621094 C1209.51433,36.677727 1210.74479,35.9355469 1212.41797,35.9355469 C1213.58334,35.9355469 1214.47526,36.3245404 1215.09375,37.1025391 C1215.71225,37.8805377 1216.02149,38.9889251 1216.02149,40.4277344 L1216.02149,47 L1215.05469,47 Z M1221.3125,47.1855469 C1221.07162,47.1855469 1220.87142,47.1041675 1220.71192,46.9414062 C1220.55241,46.778645 1220.47266,46.5768241 1220.47266,46.3359375 C1220.47266,46.0885404 1220.55241,45.8867195 1220.71192,45.7304688 C1220.87142,45.574218 1221.07162,45.4960938 1221.3125,45.4960938 C1221.55339,45.4960938 1221.75847,45.574218 1221.92774,45.7304688 C1222.09701,45.8867195 1222.18164,46.0885404 1222.18164,46.3359375 C1222.18164,46.5768241 1222.09701,46.778645 1221.92774,46.9414062 C1221.75847,47.1041675 1221.55339,47.1855469 1221.3125,47.1855469 Z" id="The-brand-new-uArm-i"></path>
            </g>
        </g>
    </g>
</svg>