<?xml version="1.0" encoding="UTF-8" standalone="no"?>
<svg width="202px" height="23px" viewBox="0 0 202 23" version="1.1" xmlns="http://www.w3.org/2000/svg" xmlns:xlink="http://www.w3.org/1999/xlink">
    <!-- Generator: Sketch 41.2 (35397) - http://www.bohemiancoding.com/sketch -->
    <title>uArm Swift is ready.</title>
    <desc>Created with Sketch.</desc>
    <defs>
        <linearGradient x1="-19.3072698%" y1="-42.397181%" x2="101.621964%" y2="132.499312%" id="linearGradient-1">
            <stop stop-color="#FFAC8A" offset="0%"></stop>
            <stop stop-color="#FC6B19" offset="100%"></stop>
        </linearGradient>
    </defs>
    <g id="swift" stroke="none" stroke-width="1" fill="none" fill-rule="evenodd">
        <g id="SWIFT产品页-Copy-2" transform="translate(-858.000000, -990.000000)" fill="url(#linearGradient-1)">
            <g id="Group-24" transform="translate(0.000000, 960.000000)">
                <path d="M866.030272,47 L866.030272,45.0371094 L865.99121,45.0371094 C865.235998,46.5214918 864.0739,47.2636719 862.504882,47.2636719 C859.952786,47.2636719 858.676757,45.655615 858.676757,42.4394531 L858.676757,36.1992188 L859.663085,36.1992188 L859.663085,42.2050781 C859.663085,43.6634187 859.903968,44.7229785 860.385741,45.3837891 C860.867514,46.0445997 861.62597,46.375 862.661132,46.375 C863.663741,46.375 864.475907,46.0055375 865.097655,45.2666016 C865.719403,44.5276656 866.030272,43.5429749 866.030272,42.3125 L866.030272,36.1992188 L867.006835,36.1992188 L867.006835,47 L866.030272,47 Z M881.89746,47 L880.168944,42.2929688 L873.61621,42.2929688 L871.877929,47 L870.73535,47 L876.438475,31.8730469 L877.434569,31.8730469 L883.069335,47 L881.89746,47 Z M877.258788,34.34375 C877.180663,34.1354156 877.118814,33.9270844 877.073241,33.71875 L876.916991,33.1914062 L876.868163,33.1914062 C876.750975,33.6601586 876.637044,34.037759 876.526366,34.3242188 L873.977538,41.3359375 L879.817382,41.3359375 L877.258788,34.34375 Z M891.895507,37.2148438 C891.569984,36.9804676 891.189129,36.8632812 890.752929,36.8632812 C889.90006,36.8632812 889.185549,37.30273 888.609374,38.1816406 C888.033199,39.0605513 887.745116,40.3105388 887.745116,41.9316406 L887.745116,47 L886.797851,47 L886.797851,36.1992188 L887.745116,36.1992188 L887.745116,38.5917969 L887.793944,38.5917969 C888.034831,37.7714803 888.423824,37.1318382 888.960937,36.6728516 C889.498049,36.2138649 890.11816,35.984375 890.821288,35.984375 C891.218426,35.984375 891.576495,36.0494785 891.895507,36.1796875 L891.895507,37.2148438 Z M908.846679,47 L908.846679,40.5058594 C908.846679,39.1451755 908.633465,38.191409 908.20703,37.6445312 C907.780596,37.0976535 907.108402,36.8242188 906.190429,36.8242188 C905.33756,36.8242188 904.60189,37.1887984 903.983398,37.9179688 C903.364905,38.6471391 903.055663,39.5650986 903.055663,40.671875 L903.055663,47 L902.088866,47 L902.088866,40.4277344 C902.088866,38.0253786 901.174162,36.8242188 899.344726,36.8242188 C898.465815,36.8242188 897.733401,37.1920536 897.14746,37.9277344 C896.56152,38.6634151 896.268554,39.6139265 896.268554,40.7792969 L896.268554,47 L895.301757,47 L895.301757,36.1992188 L896.268554,36.1992188 L896.268554,37.9960938 L896.317382,37.9960938 C897.066084,36.622389 898.166333,35.9355469 899.618163,35.9355469 C900.405928,35.9355469 901.079749,36.1617816 901.639648,36.6142578 C902.199546,37.066734 902.577147,37.6640588 902.77246,38.40625 C903.111003,37.6249961 903.594397,37.0179058 904.222655,36.5849609 C904.850914,36.1520161 905.532873,35.9355469 906.268554,35.9355469 C908.631847,35.9355469 909.813476,37.3971208 909.813476,40.3203125 L909.813476,47 L908.846679,47 Z M921.45996,46.4628906 L921.45996,45.2714844 C922.540695,45.961592 923.637689,46.3066406 924.750976,46.3066406 C925.935878,46.3066406 926.832679,46.0625024 927.441406,45.5742188 C928.050133,45.0859351 928.354492,44.4023481 928.354492,43.5234375 C928.354492,42.748694 928.149416,42.1302106 927.739257,41.6679688 C927.329099,41.2057269 926.437181,40.5774779 925.063476,39.7832031 C923.53352,38.8912716 922.565106,38.1442087 922.158203,37.5419922 C921.751299,36.9397756 921.547851,36.2447956 921.547851,35.4570312 C921.547851,34.3893176 921.962886,33.4827511 922.792968,32.7373047 C923.62305,31.9918583 924.728183,31.6191406 926.108398,31.6191406 C927.01335,31.6191406 927.915034,31.7721339 928.813476,32.078125 L928.813476,33.171875 C927.928055,32.7747376 926.980799,32.5761719 925.971679,32.5761719 C924.949539,32.5761719 924.137372,32.8349583 923.535156,33.3525391 C922.932939,33.8701198 922.631835,34.532548 922.631835,35.3398438 C922.631835,36.1080768 922.836911,36.7216774 923.24707,37.1806641 C923.657228,37.6396507 924.545891,38.2630169 925.913085,39.0507812 C927.325853,39.8515665 928.266599,40.5628224 928.735351,41.1845703 C929.204103,41.8063182 929.438476,42.5208293 929.438476,43.328125 C929.438476,44.486985 929.034834,45.4326135 928.227538,46.1650391 C927.420243,46.8974646 926.284186,47.2636719 924.819335,47.2636719 C924.298499,47.2636719 923.697919,47.1822925 923.017578,47.0195312 C922.337236,46.85677 921.818035,46.671225 921.45996,46.4628906 Z M942.99121,47 L942.083007,47 L939.729492,38.8554688 C939.664387,38.6341135 939.609049,38.3313821 939.563476,37.9472656 L939.504882,37.9472656 C939.491861,38.1100269 939.423503,38.4062479 939.299804,38.8359375 L936.663085,47 L935.754882,47 L932.493164,36.1992188 L933.567382,36.1992188 L936.077148,44.8125 C936.142252,45.0403657 936.19108,45.3430971 936.223632,45.7207031 L936.311523,45.7207031 C936.324544,45.5188792 936.389647,45.2161479 936.506835,44.8125 L939.250976,36.1992188 L939.915039,36.1992188 L942.36621,44.8125 C942.418294,45.0208344 942.467122,45.3235657 942.512695,45.7207031 L942.600585,45.7207031 C942.600585,45.5188792 942.659179,45.2161479 942.776367,44.8125 L945.33496,36.1992188 L946.34082,36.1992188 L942.99121,47 Z M950.303711,33.4746094 C950.088866,33.4746094 949.901693,33.3981127 949.742187,33.2451172 C949.582681,33.0921216 949.502929,32.8951835 949.502929,32.6542969 C949.502929,32.4264312 949.584309,32.2392585 949.74707,32.0927734 C949.909831,31.9462883 950.095376,31.8730469 950.303711,31.8730469 C950.518555,31.8730469 950.708983,31.9430332 950.875,32.0830078 C951.041016,32.2229825 951.124023,32.4134103 951.124023,32.6542969 C951.124023,32.8821626 951.042644,33.0758456 950.879882,33.2353516 C950.717121,33.3948576 950.525066,33.4746094 950.303711,33.4746094 Z M949.825195,47 L949.825195,36.1992188 L950.791992,36.1992188 L950.791992,47 L949.825195,47 Z M960.360351,32.0292969 C960.099933,31.8274729 959.706057,31.7265625 959.178711,31.7265625 C957.850579,31.7265625 957.186523,32.6184807 957.186523,34.4023438 L957.186523,36.1992188 L960.047851,36.1992188 L960.047851,37.0878906 L957.186523,37.0878906 L957.186523,47 L956.219726,47 L956.219726,37.0878906 L954.276367,37.0878906 L954.276367,36.1992188 L956.219726,36.1992188 L956.219726,34.3242188 C956.219726,33.1848901 956.506182,32.3190134 957.079101,31.7265625 C957.652021,31.1341116 958.364904,30.8378906 959.217773,30.8378906 C959.680015,30.8378906 960.060871,30.9062493 960.360351,31.0429688 L960.360351,32.0292969 Z M967.243164,46.8535156 C966.735349,47.0944022 966.260093,47.2148438 965.817383,47.2148438 C964.222323,47.2148438 963.424805,46.2578221 963.424805,44.34375 L963.424805,37.0878906 L961.481445,37.0878906 L961.481445,36.1992188 L963.424805,36.1992188 L963.424805,33.3964844 C963.574545,33.3378903 963.734049,33.2825523 963.90332,33.2304688 C964.072592,33.1783852 964.235351,33.1230472 964.391601,33.0644531 L964.391601,36.1992188 L967.243164,36.1992188 L967.243164,37.0878906 L964.391601,37.0878906 L964.391601,44.2167969 C964.391601,44.9589881 964.508788,45.4977197 964.743164,45.8330078 C964.97754,46.1682959 965.377927,46.3359375 965.944336,46.3359375 C966.341473,46.3359375 966.774412,46.2057305 967.243164,45.9453125 L967.243164,46.8535156 Z M978.52832,33.4746094 C978.313476,33.4746094 978.126303,33.3981127 977.966797,33.2451172 C977.807291,33.0921216 977.727539,32.8951835 977.727539,32.6542969 C977.727539,32.4264312 977.808919,32.2392585 977.97168,32.0927734 C978.134441,31.9462883 978.319986,31.8730469 978.52832,31.8730469 C978.743165,31.8730469 978.933593,31.9430332 979.099609,32.0830078 C979.265626,32.2229825 979.348633,32.4134103 979.348633,32.6542969 C979.348633,32.8821626 979.267254,33.0758456 979.104492,33.2353516 C978.941731,33.3948576 978.749676,33.4746094 978.52832,33.4746094 Z M978.049805,47 L978.049805,36.1992188 L979.016602,36.1992188 L979.016602,47 L978.049805,47 Z M983.301758,46.5214844 L983.301758,45.359375 C983.666343,45.6718766 984.109047,45.9192699 984.629883,46.1015625 C985.150719,46.2838551 985.599933,46.375 985.977539,46.375 C987.670256,46.375 988.516602,45.6849027 988.516602,44.3046875 C988.516602,43.8229143 988.331057,43.4127621 987.959961,43.0742188 C987.588866,42.7356754 986.983403,42.3873716 986.143555,42.0292969 C985.114904,41.5800759 984.390627,41.1145857 983.970703,40.6328125 C983.550779,40.1510393 983.340821,39.5651076 983.340821,38.875 C983.340821,37.9960894 983.676104,37.286461 984.34668,36.7460938 C985.017256,36.2057265 985.847326,35.9355469 986.836914,35.9355469 C987.761398,35.9355469 988.555661,36.1243471 989.219727,36.5019531 L989.219727,37.6054688 C988.418942,37.0846328 987.588872,36.8242188 986.729492,36.8242188 C986.019853,36.8242188 985.446943,37.0081362 985.010742,37.3759766 C984.574542,37.7438169 984.356446,38.2239554 984.356446,38.8164062 C984.356446,39.3307317 984.493163,39.7473942 984.766602,40.0664062 C985.040041,40.3854183 985.645503,40.7532531 986.583008,41.1699219 C987.709316,41.6777369 988.48242,42.1464822 988.902344,42.5761719 C989.322268,43.0058615 989.532227,43.5820276 989.532227,44.3046875 C989.532227,45.1575563 989.211592,45.8639295 988.570313,46.4238281 C987.929033,46.9837268 987.041998,47.2636719 985.90918,47.2636719 C984.867508,47.2636719 983.998376,47.0162785 983.301758,46.5214844 Z M1006.0127,37.2148438 C1005.68717,36.9804676 1005.30632,36.8632812 1004.87012,36.8632812 C1004.01725,36.8632812 1003.30274,37.30273 1002.72656,38.1816406 C1002.15039,39.0605513 1001.86231,40.3105388 1001.86231,41.9316406 L1001.86231,47 L1000.91504,47 L1000.91504,36.1992188 L1001.86231,36.1992188 L1001.86231,38.5917969 L1001.91113,38.5917969 C1002.15202,37.7714803 1002.54101,37.1318382 1003.07813,36.6728516 C1003.61524,36.2138649 1004.23535,35.984375 1004.93848,35.984375 C1005.33561,35.984375 1005.69368,36.0494785 1006.0127,36.1796875 L1006.0127,37.2148438 Z M1009.65332,41.6386719 C1009.65332,43.1230543 1009.99511,44.2835245 1010.67871,45.1201172 C1011.36231,45.9567099 1012.30305,46.375 1013.50098,46.375 C1014.71192,46.375 1015.89355,45.9290409 1017.0459,45.0371094 L1017.0459,46.0722656 C1015.9261,46.8665404 1014.67937,47.2636719 1013.30566,47.2636719 C1011.91243,47.2636719 1010.78614,46.7640024 1009.92676,45.7646484 C1009.06738,44.7652945 1008.6377,43.357431 1008.6377,41.5410156 C1008.6377,39.9654869 1009.08691,38.6373752 1009.98535,37.5566406 C1010.88379,36.4759061 1012.04915,35.9355469 1013.48145,35.9355469 C1014.8226,35.9355469 1015.85286,36.4075474 1016.57227,37.3515625 C1017.29167,38.2955776 1017.65137,39.5813721 1017.65137,41.2089844 L1017.65137,41.6386719 L1009.65332,41.6386719 Z M1016.63574,40.7597656 C1016.59017,39.5097594 1016.29069,38.5413446 1015.73731,37.8544922 C1015.18392,37.1676398 1014.41895,36.8242188 1013.44238,36.8242188 C1012.42675,36.8242188 1011.58692,37.162757 1010.92285,37.8398438 C1010.25879,38.5169305 1009.84863,39.490228 1009.69238,40.7597656 L1016.63574,40.7597656 Z M1028.15723,47 L1028.15723,44.8417969 L1028.11816,44.8417969 C1027.77311,45.5774776 1027.27181,46.1650369 1026.61426,46.6044922 C1025.9567,47.0439475 1025.22754,47.2636719 1024.42676,47.2636719 C1023.39811,47.2636719 1022.58431,46.9755888 1021.98535,46.3994141 C1021.38639,45.8232393 1021.08691,45.0957075 1021.08691,44.2167969 C1021.08691,42.3287666 1022.3369,41.1894551 1024.83691,40.7988281 L1028.15723,40.3007812 C1028.15723,37.9830613 1027.28484,36.8242188 1025.54004,36.8242188 C1024.35514,36.8242188 1023.19955,37.3027296 1022.07324,38.2597656 L1022.07324,37.0878906 C1022.47038,36.7688786 1023.01237,36.4970714 1023.69922,36.2724609 C1024.38607,36.0478504 1025.03222,35.9355469 1025.6377,35.9355469 C1026.75098,35.9355469 1027.61035,36.2805955 1028.21582,36.9707031 C1028.82129,37.6608107 1029.12402,38.6634049 1029.12402,39.9785156 L1029.12402,47 L1028.15723,47 Z M1025.18848,41.6191406 C1024.05566,41.7819019 1023.25977,42.0439435 1022.80078,42.4052734 C1022.3418,42.7666034 1022.11231,43.3574178 1022.11231,44.1777344 C1022.11231,44.8157584 1022.32552,45.3414693 1022.75195,45.7548828 C1023.17839,46.1682963 1023.77246,46.375 1024.53418,46.375 C1025.56934,46.375 1026.43196,45.9908893 1027.12207,45.2226562 C1027.81218,44.4544232 1028.15723,43.4615946 1028.15723,42.2441406 L1028.15723,41.1894531 L1025.18848,41.6191406 Z M1041.41699,47 L1041.41699,45.0371094 L1041.37793,45.0371094 C1041.02637,45.7207065 1040.50554,46.2626933 1039.81543,46.6630859 C1039.12532,47.0634786 1038.34734,47.2636719 1037.48145,47.2636719 C1036.15331,47.2636719 1035.06934,46.7786507 1034.22949,45.8085938 C1033.38965,44.8385368 1032.96973,43.4974044 1032.96973,41.7851562 C1032.96973,40.0468663 1033.42871,38.6373752 1034.34668,37.5566406 C1035.26465,36.4759061 1036.45605,35.9355469 1037.9209,35.9355469 C1039.53549,35.9355469 1040.68782,36.5996027 1041.37793,37.9277344 L1041.41699,37.9277344 L1041.41699,31.0136719 L1042.39356,31.0136719 L1042.39356,47 L1041.41699,47 Z M1041.41699,40.4277344 C1041.41699,39.4251252 1041.09961,38.5738967 1040.46484,37.8740234 C1039.83008,37.1741501 1038.97559,36.8242188 1037.90137,36.8242188 C1036.76855,36.8242188 1035.83269,37.2587847 1035.09375,38.1279297 C1034.35481,38.9970747 1033.98535,40.1900966 1033.98535,41.7070312 C1033.98535,43.1979241 1034.31738,44.3486288 1034.98145,45.1591797 C1035.64551,45.9697306 1036.50162,46.375 1037.54981,46.375 C1038.78028,46.375 1039.73242,45.9941444 1040.40625,45.2324219 C1041.08008,44.4706993 1041.41699,43.539719 1041.41699,42.4394531 L1041.41699,40.4277344 Z M1049.86231,49.2070312 C1049.47168,50.1770882 1049.03711,50.896482 1048.55859,51.3652344 C1048.08008,51.8339867 1047.46322,52.0683594 1046.70801,52.0683594 C1046.39551,52.0683594 1046.11556,52.0195317 1045.86817,51.921875 L1045.86817,50.9550781 C1046.12207,51.0527349 1046.41829,51.1015625 1046.75684,51.1015625 C1047.61622,51.1015625 1048.29655,50.5058653 1048.79785,49.3144531 L1049.80371,46.9121094 L1045.71192,36.1992188 L1046.7959,36.1992188 L1050.05762,44.9980469 C1050.12272,45.1868499 1050.17155,45.3300776 1050.2041,45.4277344 C1050.23014,45.5644538 1050.25944,45.6848953 1050.29199,45.7890625 L1050.34082,45.7890625 L1050.59473,45.0566406 L1054.07129,36.1992188 L1055.12598,36.1992188 L1049.86231,49.2070312 Z M1059.04981,47.1855469 C1058.80892,47.1855469 1058.60873,47.1041675 1058.44922,46.9414062 C1058.28971,46.778645 1058.20996,46.5768241 1058.20996,46.3359375 C1058.20996,46.0885404 1058.28971,45.8867195 1058.44922,45.7304688 C1058.60873,45.574218 1058.80892,45.4960938 1059.04981,45.4960938 C1059.29069,45.4960938 1059.49577,45.574218 1059.66504,45.7304688 C1059.83431,45.8867195 1059.91895,46.0885404 1059.91895,46.3359375 C1059.91895,46.5768241 1059.83431,46.778645 1059.66504,46.9414062 C1059.49577,47.1041675 1059.29069,47.1855469 1059.04981,47.1855469 Z" id="uArm-Swift-is-ready."></path>
            </g>
        </g>
    </g>
</svg>